<svg width="390" height="167" viewBox="0 0 390 167" fill="none" xmlns="http://www.w3.org/2000/svg">
<path d="M-10 77.3628C-8.651 74.8896 -7.45385 73.3996 -5.32374 71.192C4.67536 60.8293 15.526 51.1394 26.5423 41.8811C37.7172 32.4894 49.7883 23.5773 64.6273 21.537C75.3344 20.0647 95.324 22.3874 91.335 38.0244C87.5343 52.9228 72.6311 63.0996 63.1328 74.181C60.064 77.7612 61.9946 78.3521 65.9771 78.0377C75.9479 77.2505 86.8361 73.6721 96.6861 77.0253C124.83 86.6063 109.893 126.793 97.2164 142.927C87.9933 154.665 67.6571 173.104 51.7073 162.259C38.5646 153.321 41.8547 137.721 49.5861 126.439C55.6627 117.573 63.2238 108.534 71.4247 101.564C75.3933 98.1903 82.6918 93.4885 88.2496 95.2965C101.328 99.5508 105.808 120.602 122.526 115.882C134.757 112.428 144.497 100.032 151.307 90.0899C160.504 76.6616 170.198 59.8479 172.519 43.4238C173.429 36.982 170.656 28.2026 162.588 29.0575C148.626 30.5369 138.217 44.7517 133.084 56.3919C123.99 77.0123 118.073 128.85 152.946 128.85C171.667 128.85 187.68 111.545 198.6 98.2854C210.967 83.2676 222.025 64.8984 227.862 46.2199C229.241 41.8089 231.493 29.3805 222.656 31.468C209.389 34.6018 200.042 51.8172 196.43 63.5751C193.611 72.7535 190.572 87.6572 196.045 96.5499C202.683 107.338 219.228 100.673 227.862 96.8391C236.267 93.1068 244.235 88.4798 252.642 84.7387C268.771 77.5613 285.714 72.6859 302.152 66.323C319.464 59.6217 335.925 51.3988 351.47 41.2062C369.255 29.5443 384.026 15.2777 399.582 1" stroke="white" stroke-width="2" stroke-linecap="round"/>
<path d="M64.8213 92.1606L65.4229 88.7769C84.8232 84.9168 94.5234 76.9712 94.5234 64.9399C94.5234 61.4308 93.4206 58.2977 91.2148 55.5405C89.0592 52.7834 85.8008 51.4048 81.4395 51.4048C79.1335 51.4048 77.0531 51.7056 75.1982 52.3071C73.3434 52.9087 71.6641 53.8612 70.1602 55.1646C68.6562 56.4679 67.4531 57.646 66.5508 58.6987C65.6986 59.7013 64.6208 61.105 63.3174 62.9097L60.084 60.9546C68.6562 47.269 79.2839 40.4263 91.9668 40.4263C94.5736 40.4263 97.1553 40.8774 99.7119 41.7798C102.319 42.632 104.725 43.9103 106.931 45.6147C109.187 47.269 110.991 49.4748 112.345 52.2319C113.748 54.9891 114.45 58.047 114.45 61.4058C114.45 70.6799 108.936 78.0741 97.9072 83.5884L96.1025 84.4907C100.013 87.3481 102.97 90.4813 104.976 93.8901C106.981 97.2489 107.983 101.811 107.983 107.576C107.983 114.794 105.953 121.512 101.893 127.728C97.832 133.894 92.3929 138.757 85.5752 142.316C78.7575 145.875 71.4385 147.655 63.6182 147.655C59.9587 147.655 56.7503 147.279 53.9932 146.527C51.236 145.825 49.1556 144.998 47.752 144.045C46.3984 143.093 45.3206 142.015 44.5186 140.812C43.7165 139.559 43.2402 138.581 43.0898 137.879C42.8893 137.127 42.7891 136.476 42.7891 135.924C42.7891 134.019 43.1149 132.415 43.7666 131.112C44.4183 129.758 45.2454 128.806 46.248 128.254C47.2507 127.653 48.1781 127.252 49.0303 127.051C49.8825 126.801 50.7347 126.675 51.5869 126.675C54.3441 126.675 56.4495 127.377 57.9033 128.781C59.4072 130.134 61.9137 133.443 65.4229 138.707C66.626 140.561 68.8818 141.489 72.1904 141.489C76.7523 141.489 80.6875 139.057 83.9961 134.195C87.3548 129.332 89.0342 123.392 89.0342 116.374C89.0342 108.653 86.9287 102.688 82.7178 98.4771C78.5068 94.2661 72.5413 92.1606 64.8213 92.1606Z" fill="#CC121B"/>
<path d="M190.966 75.0913C190.966 82.2098 190.189 89.3283 188.635 96.4468C187.081 103.565 184.875 110.182 182.018 116.298C179.21 122.364 175.927 127.778 172.167 132.541C168.457 137.303 164.247 141.038 159.534 143.745C154.822 146.452 150.01 147.805 145.097 147.805C141.337 147.805 137.978 147.078 135.021 145.625C132.063 144.121 129.657 142.216 127.802 139.91C125.997 137.554 124.493 134.847 123.29 131.789C122.087 128.681 121.26 125.648 120.809 122.69C120.358 119.732 120.132 116.75 120.132 113.742C120.132 107.425 120.884 100.833 122.388 93.9653C123.892 87.0975 126.072 80.5054 128.93 74.189C131.837 67.8726 135.196 62.1828 139.006 57.1196C142.816 52.0565 147.227 48.021 152.24 45.0132C157.253 41.9552 162.417 40.4263 167.731 40.4263C174.548 40.4263 180.113 43.7098 184.424 50.2769C188.785 56.8439 190.966 65.1154 190.966 75.0913ZM175.1 56.5933C175.1 48.8231 172.418 44.938 167.054 44.938C166.001 44.938 164.948 45.2137 163.896 45.7651C162.893 46.3166 161.89 47.2189 160.888 48.4722C159.935 49.7254 159.058 50.9285 158.256 52.0815C157.504 53.1844 156.677 54.8136 155.775 56.9692C154.872 59.0747 154.145 60.729 153.594 61.9321C153.093 63.1353 152.416 64.9901 151.564 67.4966C150.762 70.0031 150.235 71.6825 149.984 72.5347C149.734 73.3368 149.233 74.9159 148.481 77.272C147.478 80.5806 146.15 85.2677 144.495 91.3335C142.841 97.3993 141.011 104.919 139.006 113.892C137.001 122.815 135.998 129.132 135.998 132.841C135.998 133.944 136.098 135.022 136.299 136.075C136.499 137.127 136.85 138.23 137.352 139.383C137.903 140.536 138.73 141.489 139.833 142.241C140.936 142.943 142.264 143.293 143.818 143.293C145.172 143.293 146.475 142.943 147.729 142.241C148.982 141.539 150.085 140.712 151.037 139.759C151.99 138.807 152.967 137.428 153.97 135.624C154.972 133.819 155.8 132.215 156.451 130.811C157.103 129.407 157.855 127.502 158.707 125.096C159.559 122.64 160.186 120.735 160.587 119.381C160.988 118.028 161.565 116.098 162.317 113.591C165.324 103.064 168.207 92.0103 170.964 80.4302C173.721 68.8 175.1 60.8543 175.1 56.5933Z" fill="#CC121B"/>
<path d="M263.346 75.0913C263.346 82.2098 262.569 89.3283 261.015 96.4468C259.461 103.565 257.255 110.182 254.398 116.298C251.59 122.364 248.307 127.778 244.547 132.541C240.837 137.303 236.627 141.038 231.914 143.745C227.202 146.452 222.39 147.805 217.477 147.805C213.717 147.805 210.358 147.078 207.401 145.625C204.443 144.121 202.037 142.216 200.182 139.91C198.377 137.554 196.873 134.847 195.67 131.789C194.467 128.681 193.64 125.648 193.189 122.69C192.738 119.732 192.512 116.75 192.512 113.742C192.512 107.425 193.264 100.833 194.768 93.9653C196.272 87.0975 198.452 80.5054 201.31 74.189C204.217 67.8726 207.576 62.1828 211.386 57.1196C215.196 52.0565 219.607 48.021 224.62 45.0132C229.633 41.9552 234.797 40.4263 240.111 40.4263C246.928 40.4263 252.493 43.7098 256.804 50.2769C261.165 56.8439 263.346 65.1154 263.346 75.0913ZM247.48 56.5933C247.48 48.8231 244.798 44.938 239.434 44.938C238.381 44.938 237.328 45.2137 236.276 45.7651C235.273 46.3166 234.27 47.2189 233.268 48.4722C232.315 49.7254 231.438 50.9285 230.636 52.0815C229.884 53.1844 229.057 54.8136 228.155 56.9692C227.252 59.0747 226.525 60.729 225.974 61.9321C225.473 63.1353 224.796 64.9901 223.944 67.4966C223.142 70.0031 222.615 71.6825 222.365 72.5347C222.114 73.3368 221.613 74.9159 220.861 77.272C219.858 80.5806 218.53 85.2677 216.875 91.3335C215.221 97.3993 213.391 104.919 211.386 113.892C209.381 122.815 208.378 129.132 208.378 132.841C208.378 133.944 208.478 135.022 208.679 136.075C208.879 137.127 209.23 138.23 209.732 139.383C210.283 140.536 211.11 141.489 212.213 142.241C213.316 142.943 214.644 143.293 216.198 143.293C217.552 143.293 218.855 142.943 220.109 142.241C221.362 141.539 222.465 140.712 223.417 139.759C224.37 138.807 225.347 137.428 226.35 135.624C227.352 133.819 228.18 132.215 228.831 130.811C229.483 129.407 230.235 127.502 231.087 125.096C231.939 122.64 232.566 120.735 232.967 119.381C233.368 118.028 233.945 116.098 234.697 113.591C237.704 103.064 240.587 92.0103 243.344 80.4302C246.101 68.8 247.48 60.8543 247.48 56.5933Z" fill="#CC121B"/>
<path d="M268.537 120.784V119.146C270.92 118.868 274.842 118.302 280.302 117.448L278.009 124.447C279.816 121.906 281.454 120.109 282.923 119.056C284.413 117.984 286.021 117.448 287.749 117.448C289.754 117.448 291.353 118.113 292.544 119.443C293.735 120.774 294.331 122.571 294.331 124.834C294.331 127.396 293.835 129.997 292.842 132.638C291.849 135.279 290.558 137.602 288.97 139.608C287.401 141.613 285.584 143.252 283.519 144.522C281.474 145.793 279.448 146.429 277.443 146.429C276.807 146.429 276.222 146.339 275.686 146.161C275.169 146.002 274.375 145.644 273.303 145.088L272.618 147.59C271.565 151.542 271.039 153.835 271.039 154.471C271.039 155.205 271.327 155.722 271.903 156.02C272.479 156.317 273.511 156.476 275 156.496V158.134H259.81V156.496H260.197C261.448 156.496 262.342 156.208 262.878 155.632C263.394 155.056 263.901 153.835 264.397 151.969L270.503 128.29C271.396 124.973 271.843 122.988 271.843 122.333C271.843 121.757 271.635 121.369 271.218 121.171C270.801 120.972 269.907 120.843 268.537 120.784ZM286.706 124.894C286.706 124.08 286.498 123.355 286.081 122.72C285.664 122.084 285.058 121.767 284.264 121.767C283.112 121.767 282.02 122.283 280.987 123.315C279.975 124.348 279.141 125.52 278.485 126.83C277.929 128.002 277.046 130.573 275.834 134.544C274.623 138.516 274.018 140.968 274.018 141.901C274.018 142.616 274.246 143.192 274.703 143.629C275.159 144.066 275.745 144.284 276.46 144.284C277.81 144.284 279.151 143.5 280.481 141.931C281.811 140.362 282.913 138.496 283.787 136.332C284.661 134.167 285.366 132.033 285.902 129.928C286.438 127.803 286.706 126.125 286.706 124.894Z" fill="white"/>
<path d="M323.567 138.804C323.031 139.677 322.465 140.501 321.869 141.276C321.274 142.05 320.569 142.864 319.754 143.718C318.94 144.552 318.067 145.217 317.133 145.714C316.2 146.23 315.277 146.488 314.363 146.488C313.232 146.488 312.259 146.101 311.444 145.327C310.65 144.552 310.253 143.599 310.253 142.467C310.253 141.713 310.521 140.422 311.057 138.595L310.938 138.685C310.442 139.519 309.975 140.253 309.538 140.889C309.101 141.524 308.555 142.209 307.9 142.944C307.265 143.679 306.629 144.284 305.994 144.761C305.358 145.237 304.614 145.634 303.76 145.952C302.926 146.27 302.062 146.429 301.169 146.429C298.945 146.429 297.277 145.674 296.165 144.165C295.073 142.656 294.526 140.76 294.526 138.476C294.526 136.57 295.003 134.405 295.956 131.983C296.909 129.541 298.13 127.247 299.62 125.103C301.109 122.958 302.886 121.151 304.951 119.682C307.016 118.192 309.052 117.448 311.057 117.448C313.738 117.448 315.267 118.828 315.644 121.588H315.763L316.806 118.222L323.567 117.805C323.507 118.024 323.061 119.424 322.227 122.005C321.393 124.566 320.638 126.91 319.963 129.034C319.308 131.159 318.672 133.462 318.057 135.944C317.461 138.407 317.163 140.174 317.163 141.246C317.163 141.465 317.233 141.673 317.372 141.872C317.531 142.05 317.719 142.14 317.938 142.14C318.116 142.14 318.315 142.08 318.533 141.961C318.772 141.842 319.01 141.673 319.248 141.455C319.506 141.236 319.745 141.018 319.963 140.799C320.181 140.581 320.42 140.303 320.678 139.965C320.956 139.628 321.164 139.37 321.303 139.191C321.462 138.992 321.651 138.734 321.869 138.417C322.107 138.099 322.246 137.92 322.286 137.88L323.567 138.804ZM314.304 122.988C314.304 122.233 314.105 121.548 313.708 120.933C313.331 120.317 312.775 120.009 312.04 120.009C310.869 120.009 309.647 120.784 308.377 122.333C307.126 123.861 306.043 125.668 305.13 127.753C304.236 129.819 303.492 131.874 302.896 133.919C302.32 135.944 302.032 137.503 302.032 138.595C302.032 139.489 302.271 140.293 302.747 141.008C303.224 141.723 303.879 142.08 304.713 142.08C305.726 142.08 306.738 141.564 307.751 140.531C308.764 139.479 309.647 138.168 310.402 136.6C311.176 135.031 311.861 133.363 312.457 131.596C313.053 129.809 313.51 128.151 313.827 126.622C314.145 125.093 314.304 123.881 314.304 122.988Z" fill="white"/>
<path d="M326.8 126.413H325.281L327.724 117.567H329.064C329.124 118.024 329.233 118.341 329.392 118.52C329.57 118.699 329.848 118.788 330.226 118.788C330.524 118.788 331.477 118.58 333.085 118.163C335.23 117.686 336.878 117.448 338.029 117.448C340.531 117.448 342.408 118.083 343.659 119.354C344.91 120.605 345.535 122.223 345.535 124.209C345.535 126.751 344.84 128.975 343.45 130.881C342.08 132.787 339.697 134.574 336.302 136.242L336.242 136.54C337.513 137.156 338.615 138.109 339.548 139.399C340.482 140.67 340.948 142.09 340.948 143.659C340.948 145.069 340.78 146.439 340.442 147.769C340.104 149.119 339.539 150.43 338.744 151.701C337.97 152.972 337.007 154.074 335.855 155.007C334.703 155.94 333.244 156.695 331.477 157.271C329.709 157.846 327.744 158.134 325.579 158.134C321.489 158.134 318.461 156 316.495 151.73L317.895 150.628C319.166 152.277 320.307 153.468 321.32 154.203C322.333 154.957 323.504 155.334 324.835 155.334C325.947 155.334 326.969 155.126 327.902 154.709C328.836 154.312 329.6 153.776 330.196 153.101C330.792 152.445 331.308 151.73 331.745 150.956C332.182 150.201 332.509 149.407 332.728 148.573C332.966 147.759 333.135 147.044 333.234 146.429C333.333 145.833 333.383 145.317 333.383 144.88C333.383 143.311 332.926 141.802 332.013 140.353C331.119 138.903 329.848 137.87 328.2 137.255L328.856 135.259C330.782 134.882 332.39 134.346 333.681 133.651C334.991 132.936 335.984 132.062 336.659 131.03C337.354 129.997 337.831 128.905 338.089 127.753C338.367 126.582 338.506 125.202 338.506 123.613C338.506 122.184 338.268 121.171 337.791 120.575C337.315 119.96 336.411 119.652 335.081 119.652C333.373 119.652 331.794 120.307 330.345 121.618C328.895 122.928 327.714 124.527 326.8 126.413Z" fill="white"/>
</svg>
