<svg width="390" height="201" viewBox="0 0 390 201" fill="none" xmlns="http://www.w3.org/2000/svg">
<path d="M-7.50004 91.5001C-1.8966 85.4218 16.3204 70.7836 22.7583 65.3653C33.0638 56.6922 49.4842 43.4141 60.2358 35.3426C68.2465 29.3287 76.4598 22.6499 86.3756 20.2085C93.4756 18.4604 103.103 15.7016 105.55 25.4318C109.424 40.8287 102.45 55.8089 92.7325 67.1867C77.781 84.6917 60.3301 101.698 53.5604 124.442C51.6743 130.779 45.8181 152.586 56.0436 155.898C60.2154 157.249 65.1706 154.258 68.4806 152.169C78.1006 146.097 85.6293 137.538 93.4099 129.388C99.8503 122.641 106.472 115.814 113.68 109.869C117.434 106.772 122.553 102.521 127.593 101.789C131.429 101.232 131.676 105.782 131.735 108.48C131.87 114.684 131.198 120.79 132.444 126.938C133.286 131.096 134.92 136.226 139.559 137.491C146.823 139.472 155.384 135.335 161.294 131.554C167.708 127.45 172.917 121.992 178.008 116.401C180.622 113.53 183.459 109.376 187.045 107.565C189.504 106.324 193.007 107.966 195.534 108.182C202.493 108.777 208.769 105.529 214.184 101.401C220.67 96.4568 225.954 89.9737 230.779 83.463C236.092 76.2944 242.346 68.038 244.376 59.1538C245.664 53.5199 244.833 44.7083 238.925 41.6385C231.512 37.7863 220.228 47.7684 215.75 52.3921C208.203 60.1838 189.507 89.4594 212.491 90.4911C227.896 91.1826 243.057 80.5898 255.94 73.6363C266.154 68.1229 279.35 59.1087 291.752 61.0924C301.421 62.6389 308.708 71.7813 317.697 75.2726C335.011 81.9972 355.585 76.1743 372.762 72.0174C392.955 67.131 412.818 60.4502 433.799 60.172C446.918 59.998 460.236 61.7355 473.316 62.6989" stroke="white" stroke-width="2" stroke-linecap="round"/>
<path d="M99.826 101.801L95.6151 116.915H85.163L78.6962 140H58.995L65.3114 116.915H27.7137L32.0751 100.748L97.7958 34.8018H107.496L89.1483 101.801H99.826ZM38.2411 101.801H69.4471L81.6288 58.7139L38.2411 101.801Z" fill="#CC121B"/>
<path d="M172.356 101.801L168.146 116.915H157.693L151.227 140H131.525L137.842 116.915H100.244L104.605 100.748L170.326 34.8018H180.026L161.679 101.801H172.356ZM110.771 101.801H141.978L154.159 58.7139L110.771 101.801Z" fill="#CC121B"/>
<path d="M239.473 110.599L227.291 140H170.819V136.315C184.906 122.229 193.428 113.632 196.386 110.523C199.394 107.415 202.777 103.58 206.537 99.0186C212.001 92.3512 216.112 86.5612 218.869 81.6484C221.626 76.7357 223.005 71.5973 223.005 66.2334C223.005 65.1305 222.98 64.1279 222.93 63.2256C222.88 62.2731 222.579 60.8193 222.027 58.8643C221.526 56.9092 220.824 55.2799 219.922 53.9766C219.02 52.623 217.591 51.4199 215.636 50.3672C213.731 49.2643 211.425 48.7129 208.718 48.7129C200.998 48.7129 194.155 53.1243 188.19 61.9473L184.806 60.0674C185.808 57.9118 186.911 55.8564 188.114 53.9014C189.318 51.9463 190.947 49.7656 193.002 47.3594C195.057 44.903 197.238 42.7975 199.544 41.043C201.9 39.2884 204.733 37.8096 208.041 36.6064C211.4 35.4033 214.909 34.8018 218.568 34.8018C222.429 34.8018 225.988 35.5788 229.246 37.1328C232.505 38.6868 235.137 40.7171 237.142 43.2236C239.197 45.7301 240.776 48.5124 241.879 51.5703C243.032 54.5781 243.609 57.611 243.609 60.6689C243.609 72.3493 236.214 84.5309 221.426 97.2139L191.273 122.931H214.207C218.418 122.931 221.752 122.555 224.208 121.803C226.715 121.001 228.77 119.772 230.374 118.118C232.028 116.464 233.783 113.957 235.638 110.599H239.473Z" fill="#CC121B"/>
<path d="M253.702 115.159V113.521C256.085 113.243 260.007 112.677 265.467 111.823L263.174 118.823C264.981 116.281 266.619 114.484 268.088 113.432C269.578 112.359 271.186 111.823 272.913 111.823C274.919 111.823 276.517 112.488 277.709 113.819C278.9 115.149 279.496 116.946 279.496 119.21C279.496 121.771 279 124.373 278.007 127.014C277.014 129.655 275.723 131.978 274.135 133.983C272.566 135.989 270.749 137.627 268.684 138.898C266.639 140.169 264.613 140.804 262.608 140.804C261.972 140.804 261.387 140.715 260.85 140.536C260.334 140.377 259.54 140.02 258.468 139.464L257.783 141.966C256.73 145.917 256.204 148.211 256.204 148.846C256.204 149.581 256.492 150.097 257.068 150.395C257.644 150.693 258.676 150.852 260.165 150.872V152.51H244.975V150.872H245.362C246.613 150.872 247.507 150.584 248.043 150.008C248.559 149.432 249.065 148.211 249.562 146.344L255.668 122.665C256.561 119.349 257.008 117.363 257.008 116.708C257.008 116.132 256.8 115.745 256.383 115.546C255.966 115.348 255.072 115.219 253.702 115.159ZM271.871 119.27C271.871 118.455 271.662 117.731 271.245 117.095C270.828 116.46 270.223 116.142 269.429 116.142C268.277 116.142 267.185 116.658 266.152 117.691C265.14 118.723 264.306 119.895 263.65 121.206C263.094 122.377 262.211 124.949 260.999 128.92C259.788 132.891 259.182 135.344 259.182 136.277C259.182 136.992 259.411 137.568 259.868 138.004C260.324 138.441 260.91 138.66 261.625 138.66C262.975 138.66 264.315 137.875 265.646 136.307C266.976 134.738 268.078 132.871 268.952 130.707C269.826 128.543 270.531 126.408 271.067 124.303C271.603 122.179 271.871 120.501 271.871 119.27Z" fill="white"/>
<path d="M308.732 133.179C308.196 134.053 307.63 134.877 307.034 135.651C306.438 136.426 305.734 137.24 304.919 138.094C304.105 138.928 303.232 139.593 302.298 140.089C301.365 140.606 300.442 140.864 299.528 140.864C298.396 140.864 297.423 140.477 296.609 139.702C295.815 138.928 295.418 137.975 295.418 136.843C295.418 136.088 295.686 134.798 296.222 132.971L296.103 133.06C295.607 133.894 295.14 134.629 294.703 135.264C294.266 135.9 293.72 136.585 293.065 137.319C292.429 138.054 291.794 138.66 291.159 139.136C290.523 139.613 289.779 140.01 288.925 140.328C288.091 140.645 287.227 140.804 286.333 140.804C284.109 140.804 282.442 140.05 281.33 138.541C280.237 137.031 279.691 135.135 279.691 132.852C279.691 130.945 280.168 128.781 281.121 126.358C282.074 123.916 283.295 121.623 284.785 119.478C286.274 117.333 288.051 115.527 290.116 114.057C292.181 112.568 294.217 111.823 296.222 111.823C298.903 111.823 300.432 113.203 300.809 115.963H300.928L301.971 112.598L308.732 112.181C308.672 112.399 308.226 113.799 307.392 116.38C306.558 118.942 305.803 121.285 305.128 123.41C304.473 125.534 303.837 127.838 303.222 130.32C302.626 132.782 302.328 134.549 302.328 135.622C302.328 135.84 302.398 136.049 302.537 136.247C302.695 136.426 302.884 136.515 303.102 136.515C303.281 136.515 303.48 136.456 303.698 136.336C303.936 136.217 304.175 136.049 304.413 135.83C304.671 135.612 304.909 135.393 305.128 135.175C305.346 134.956 305.585 134.678 305.843 134.341C306.121 134.003 306.329 133.745 306.468 133.566C306.627 133.368 306.816 133.11 307.034 132.792C307.272 132.474 307.411 132.296 307.451 132.256L308.732 133.179ZM299.469 117.363C299.469 116.609 299.27 115.924 298.873 115.308C298.496 114.693 297.94 114.385 297.205 114.385C296.033 114.385 294.812 115.159 293.541 116.708C292.29 118.237 291.208 120.044 290.295 122.129C289.401 124.194 288.657 126.249 288.061 128.294C287.485 130.32 287.197 131.879 287.197 132.971C287.197 133.864 287.436 134.668 287.912 135.383C288.389 136.098 289.044 136.456 289.878 136.456C290.891 136.456 291.903 135.939 292.916 134.907C293.929 133.854 294.812 132.544 295.567 130.975C296.341 129.406 297.026 127.738 297.622 125.971C298.218 124.184 298.674 122.526 298.992 120.997C299.31 119.468 299.469 118.257 299.469 117.363Z" fill="white"/>
<path d="M311.965 120.789H310.446L312.889 111.942H314.229C314.289 112.399 314.398 112.717 314.557 112.896C314.735 113.074 315.013 113.164 315.391 113.164C315.689 113.164 316.642 112.955 318.25 112.538C320.395 112.062 322.043 111.823 323.194 111.823C325.696 111.823 327.573 112.459 328.824 113.729C330.075 114.98 330.7 116.599 330.7 118.584C330.7 121.126 330.005 123.35 328.615 125.256C327.245 127.163 324.862 128.95 321.467 130.618L321.407 130.916C322.678 131.531 323.78 132.484 324.713 133.775C325.647 135.046 326.113 136.465 326.113 138.034C326.113 139.444 325.945 140.814 325.607 142.145C325.269 143.495 324.703 144.805 323.909 146.076C323.135 147.347 322.172 148.449 321.02 149.382C319.868 150.316 318.409 151.07 316.642 151.646C314.874 152.222 312.909 152.51 310.744 152.51C306.654 152.51 303.626 150.375 301.66 146.106L303.06 145.004C304.33 146.652 305.472 147.843 306.485 148.578C307.498 149.333 308.669 149.71 310 149.71C311.112 149.71 312.134 149.501 313.067 149.084C314.001 148.687 314.765 148.151 315.361 147.476C315.957 146.821 316.473 146.106 316.91 145.332C317.347 144.577 317.674 143.783 317.893 142.949C318.131 142.135 318.3 141.42 318.399 140.804C318.498 140.208 318.548 139.692 318.548 139.255C318.548 137.687 318.091 136.178 317.178 134.728C316.284 133.278 315.013 132.246 313.365 131.63L314.021 129.635C315.947 129.257 317.555 128.721 318.846 128.026C320.156 127.312 321.149 126.438 321.824 125.405C322.519 124.373 322.996 123.281 323.254 122.129C323.532 120.957 323.671 119.577 323.671 117.989C323.671 116.559 323.433 115.546 322.956 114.951C322.48 114.335 321.576 114.027 320.246 114.027C318.538 114.027 316.959 114.683 315.51 115.993C314.06 117.304 312.879 118.902 311.965 120.789Z" fill="white"/>
<path d="M356.958 133.179C356.422 134.053 355.856 134.877 355.26 135.651C354.664 136.426 353.959 137.24 353.145 138.094C352.331 138.928 351.457 139.593 350.524 140.089C349.591 140.606 348.667 140.864 347.754 140.864C346.622 140.864 345.649 140.477 344.835 139.702C344.041 138.928 343.644 137.975 343.644 136.843C343.644 136.088 343.912 134.798 344.448 132.971L344.329 133.06C343.832 133.894 343.366 134.629 342.929 135.264C342.492 135.9 341.946 136.585 341.291 137.319C340.655 138.054 340.02 138.66 339.384 139.136C338.749 139.613 338.004 140.01 337.151 140.328C336.317 140.645 335.453 140.804 334.559 140.804C332.335 140.804 330.667 140.05 329.555 138.541C328.463 137.031 327.917 135.135 327.917 132.852C327.917 130.945 328.394 128.781 329.347 126.358C330.3 123.916 331.521 121.623 333.01 119.478C334.5 117.333 336.277 115.527 338.342 114.057C340.407 112.568 342.442 111.823 344.448 111.823C347.129 111.823 348.658 113.203 349.035 115.963H349.154L350.196 112.598L356.958 112.181C356.898 112.399 356.451 113.799 355.617 116.38C354.783 118.942 354.029 121.285 353.354 123.41C352.698 125.534 352.063 127.838 351.447 130.32C350.852 132.782 350.554 134.549 350.554 135.622C350.554 135.84 350.623 136.049 350.762 136.247C350.921 136.426 351.11 136.515 351.328 136.515C351.507 136.515 351.706 136.456 351.924 136.336C352.162 136.217 352.401 136.049 352.639 135.83C352.897 135.612 353.135 135.393 353.354 135.175C353.572 134.956 353.81 134.678 354.068 134.341C354.346 134.003 354.555 133.745 354.694 133.566C354.853 133.368 355.041 133.11 355.26 132.792C355.498 132.474 355.637 132.296 355.677 132.256L356.958 133.179ZM347.694 117.363C347.694 116.609 347.496 115.924 347.099 115.308C346.721 114.693 346.165 114.385 345.431 114.385C344.259 114.385 343.038 115.159 341.767 116.708C340.516 118.237 339.434 120.044 338.521 122.129C337.627 124.194 336.882 126.249 336.287 128.294C335.711 130.32 335.423 131.879 335.423 132.971C335.423 133.864 335.661 134.668 336.138 135.383C336.614 136.098 337.27 136.456 338.104 136.456C339.116 136.456 340.129 135.939 341.142 134.907C342.154 133.854 343.038 132.544 343.793 130.975C344.567 129.406 345.252 127.738 345.848 125.971C346.443 124.184 346.9 122.526 347.218 120.997C347.536 119.468 347.694 118.257 347.694 117.363Z" fill="white"/>
</svg>
