<svg width="390" height="680" viewBox="0 0 390 680" fill="none" xmlns="http://www.w3.org/2000/svg">
<g clip-path="url(#clip0_101_106)">
<path d="M64.7414 636.68L-26.0108 297.988L127.643 50.3464C133.207 41.3792 144.781 38.278 154.083 43.2619L410.972 180.899L501.724 519.591L283.233 578.136L64.7414 636.68Z" fill="#CC121B"/>
<path d="M-26.0108 297.988L64.7414 636.68M-26.0108 297.988L183.741 426.233M-26.0108 297.988L127.643 50.3464C133.207 41.3792 144.781 38.278 154.083 43.2619L410.972 180.899M64.7414 636.68L283.233 578.136L501.724 519.591M64.7414 636.68L183.741 426.233M183.741 426.233L238.593 411.536L293.444 396.838M410.972 180.899L501.724 519.591M410.972 180.899L293.444 396.838M501.724 519.591L293.444 396.838" stroke="url(#paint0_linear_101_106)" stroke-width="2"/>
<path d="M183.741 426.233L238.593 411.536L293.444 396.838L410.972 180.899L192.481 239.444L-26.0109 297.988L183.741 426.233Z" fill="white" stroke="url(#paint1_linear_101_106)" stroke-width="2"/>
<path d="M33.5 198C21 187 14.5 160.914 21 138.5C33.7914 94.3916 73.8201 59.6359 113.466 38.6875C133.818 27.9341 157.524 18.5477 180.37 15.1565C204.648 11.5528 228.76 16.7893 251.661 25.0774C267.332 30.7489 283.386 40.1862 289.251 56.7346C294.488 71.5116 291.362 89.4689 282.172 101.902C272.978 114.341 261.331 124.177 246.127 128.075C234.955 130.94 219.661 131.717 211.479 121.943C193.818 100.848 227.414 77.7829 244.333 71.7406C273.364 61.3723 303.004 66.3876 323.251 90.5355C350.946 123.566 342.368 178.494 326.243 214.572C302.586 267.497 253.928 296.441 208.288 328.388C157.944 363.629 102.456 396.892 62.5157 444.498C46.7153 463.331 34.3654 486.221 28.4156 510.105C23.0658 531.581 26.6399 551.256 34.4479 571.625C51.3516 615.722 97.249 644.96 141.235 657.623C165.222 664.529 189.807 668.349 214.52 662.858C243.578 656.4 266.928 639.477 287.157 618.189C299.402 605.302 317.786 584.178 312.981 564.546C309.17 548.975 293.015 540.28 278.084 539.021C264.814 537.902 250.946 546.159 244.532 557.666C237.473 570.331 244.375 585.595 252.06 596.153C264.532 613.289 283.626 620.424 303.609 625.268C315.231 628.085 327.054 629.415 339.005 629.655C350.912 629.895 361.523 629.327 373.155 626.016C412.888 614.706 450.77 596.979 489.265 582.294" stroke="white" stroke-width="2" stroke-linecap="round"/>
<path d="M121.664 302.586L121.986 309.28L121.085 309.351C121.058 309.038 121.001 308.722 120.917 308.405C120.579 307.146 120.004 306.197 119.191 305.556C118.386 304.913 117.376 304.754 116.161 305.079C115.246 305.325 114.446 305.846 113.763 306.642C113.087 307.427 112.576 308.338 112.231 309.374C111.894 310.408 111.653 311.515 111.507 312.696C111.361 313.877 111.318 315.002 111.378 316.071C111.447 317.138 111.59 318.076 111.807 318.886C111.982 319.537 112.219 320.125 112.52 320.648C112.82 321.172 113.182 321.622 113.604 322C114.026 322.377 114.527 322.63 115.109 322.757C115.699 322.882 116.329 322.855 116.998 322.675C118.248 322.34 119.253 321.793 120.011 321.033C120.777 320.262 121.434 319.227 121.982 317.929L122.96 318.304C122.472 319.793 121.677 321.068 120.574 322.128C119.477 323.176 118.18 323.901 116.684 324.302C114.544 324.876 112.614 324.714 110.892 323.816C109.17 322.919 108.025 321.409 107.456 319.287C107.048 317.764 106.927 316.202 107.092 314.601C107.257 313 107.67 311.511 108.33 310.136C108.99 308.761 109.925 307.548 111.134 306.497C112.344 305.447 113.728 304.713 115.286 304.295C115.929 304.123 116.8 304.031 117.901 304.019C119.011 304.005 119.706 303.96 119.988 303.884C120.455 303.759 120.745 303.398 120.859 302.802L121.664 302.586Z" fill="#0D0D0D"/>
<path d="M137.051 315.08C136.917 315.531 136.764 315.964 136.592 316.378C136.42 316.792 136.204 317.237 135.945 317.712C135.683 318.178 135.374 318.577 135.02 318.908C134.667 319.248 134.288 319.472 133.883 319.581C133.382 319.715 132.904 319.659 132.451 319.412C132.007 319.163 131.718 318.788 131.583 318.286C131.494 317.951 131.459 317.347 131.48 316.474L131.438 316.527C131.317 316.956 131.197 317.337 131.079 317.671C130.961 318.005 130.8 318.373 130.597 318.777C130.402 319.178 130.192 319.522 129.967 319.809C129.742 320.096 129.459 320.36 129.118 320.603C128.786 320.842 128.422 321.016 128.026 321.122C127.04 321.386 126.211 321.25 125.538 320.713C124.875 320.173 124.408 319.397 124.136 318.385C123.91 317.54 123.864 316.523 123.999 315.336C124.131 314.14 124.4 312.978 124.806 311.85C125.211 310.722 125.785 309.71 126.526 308.813C127.264 307.908 128.078 307.336 128.967 307.097C130.156 306.779 130.998 307.209 131.493 308.388L131.546 308.374L131.608 306.758L134.556 305.77C134.556 305.874 134.524 306.547 134.461 307.791C134.396 309.026 134.339 310.154 134.293 311.177C134.254 312.196 134.246 313.293 134.268 314.467C134.297 315.629 134.375 316.448 134.502 316.924C134.528 317.02 134.583 317.105 134.669 317.176C134.76 317.237 134.855 317.254 134.951 317.228C135.031 317.207 135.112 317.157 135.194 317.078C135.286 316.997 135.371 316.894 135.451 316.768C135.54 316.641 135.619 316.516 135.69 316.393C135.761 316.27 135.834 316.119 135.908 315.938C135.991 315.756 136.053 315.616 136.093 315.521C136.14 315.414 136.193 315.277 136.252 315.11C136.32 314.941 136.361 314.845 136.374 314.823L137.051 315.08ZM131.065 309.168C130.975 308.834 130.806 308.553 130.557 308.328C130.316 308.1 130.033 308.029 129.708 308.116C129.188 308.256 128.739 308.744 128.359 309.582C127.986 310.408 127.721 311.338 127.564 312.371C127.413 313.393 127.327 314.392 127.306 315.37C127.291 316.336 127.349 317.062 127.478 317.546C127.585 317.942 127.786 318.27 128.082 318.531C128.378 318.791 128.711 318.872 129.081 318.773C129.53 318.652 129.918 318.303 130.244 317.725C130.568 317.138 130.804 316.452 130.952 315.667C131.109 314.879 131.215 314.058 131.269 313.204C131.321 312.341 131.326 311.551 131.285 310.836C131.245 310.12 131.171 309.564 131.065 309.168Z" fill="#0D0D0D"/>
<path d="M141.328 313L141.508 307.913C141.528 307.143 141.496 306.6 141.411 306.283C141.335 306.001 141.157 305.827 140.875 305.761C140.602 305.693 140.152 305.723 139.527 305.853L139.332 305.127C139.732 305.001 140.16 304.853 140.615 304.684C141.069 304.515 141.525 304.332 141.982 304.134C142.438 303.936 142.822 303.767 143.134 303.627C143.445 303.487 143.79 303.329 144.167 303.152C144.553 302.973 144.763 302.875 144.796 302.856L147.213 311.14L150.051 301.816L153.749 300.825L153.577 310.326C153.574 311.195 153.588 311.687 153.618 311.801C153.685 312.048 153.845 312.137 154.101 312.069C154.329 312.007 154.532 311.811 154.707 311.481C154.883 311.151 155.128 310.496 155.44 309.516L156.127 309.7C155.692 311.213 155.223 312.315 154.72 313.007C154.225 313.696 153.577 314.148 152.776 314.363C152.204 314.516 151.713 314.497 151.303 314.304C150.899 314.101 150.63 313.749 150.496 313.247C150.472 313.159 150.451 313.08 150.432 313.009C150.419 312.928 150.406 312.86 150.392 312.807C150.384 312.743 150.373 312.666 150.358 312.576C150.352 312.483 150.348 312.414 150.345 312.367C150.342 312.321 150.341 312.231 150.344 312.099C150.346 311.966 150.347 311.866 150.348 311.8C150.35 311.734 150.352 311.601 150.355 311.402C150.358 311.203 150.363 311.046 150.37 310.931L150.514 303.122L146.425 316.333L145.567 316.563L142.452 306.259L142.089 313.673C142.078 313.95 142.068 314.16 142.06 314.304C142.049 314.439 142.018 314.66 141.968 314.966C141.918 315.271 141.857 315.519 141.785 315.708C141.713 315.897 141.605 316.129 141.462 316.403C141.327 316.675 141.162 316.904 140.966 317.088C140.768 317.264 140.517 317.44 140.215 317.615C139.922 317.788 139.586 317.925 139.207 318.027C138.67 318.17 138.158 318.124 137.67 317.887C137.17 317.643 136.867 317.323 136.761 316.927C136.634 316.451 136.662 316.062 136.844 315.758C137.025 315.446 137.291 315.242 137.643 315.148C138.163 315.009 138.648 315.129 139.099 315.508C139.247 315.638 139.363 315.739 139.449 315.81C139.54 315.871 139.668 315.926 139.833 315.976C139.995 316.018 140.16 316.016 140.327 315.971C140.468 315.934 140.593 315.872 140.702 315.786C140.809 315.691 140.895 315.574 140.961 315.434C141.034 315.282 141.091 315.144 141.133 315.019C141.182 314.884 141.215 314.71 141.234 314.497C141.261 314.282 141.277 314.113 141.282 313.989C141.295 313.863 141.304 313.686 141.309 313.458C141.314 313.23 141.321 313.077 141.328 313Z" fill="#0D0D0D"/>
<path d="M162.501 304.722C161.788 304.913 161.205 305.503 160.753 306.493C160.301 307.482 160.229 308.553 160.538 309.707C160.63 310.05 160.754 310.319 160.91 310.513C161.066 310.707 161.239 310.826 161.43 310.869C161.63 310.91 161.795 310.927 161.925 310.92C162.064 310.911 162.218 310.884 162.385 310.84L162.504 310.808C163.393 310.569 164.109 310.019 164.651 309.156C165.192 308.285 165.324 307.334 165.048 306.304C164.836 305.512 164.525 305.005 164.117 304.785C163.709 304.564 163.17 304.543 162.501 304.722ZM157.342 306.968C157.366 303.961 157.324 302.255 157.216 301.85C157.1 301.418 156.506 301.332 155.434 301.591L155.246 300.891C157.297 300.162 159.039 299.427 160.472 298.684L160.514 305.283L160.581 305.322C160.884 304.797 161.353 304.294 161.988 303.812C162.632 303.328 163.236 303.011 163.799 302.86C166.036 302.261 167.41 302.916 167.922 304.827C168.186 305.813 168.105 306.797 167.679 307.779C167.251 308.752 166.569 309.605 165.633 310.337C164.695 311.06 163.609 311.587 162.376 311.918C161.769 312.08 161.209 312.155 160.696 312.141C160.182 312.128 159.751 312.05 159.402 311.908C159.058 311.754 158.754 311.553 158.489 311.303C158.222 311.044 158.014 310.779 157.866 310.508C157.724 310.225 157.612 309.929 157.529 309.621C157.472 309.41 157.428 309.172 157.394 308.907C157.368 308.631 157.349 308.405 157.34 308.228C157.337 308.04 157.336 307.809 157.338 307.535C157.347 307.25 157.348 307.061 157.342 306.968ZM174.702 304.142L175.399 304.366C174.83 306.047 174.302 307.227 173.813 307.905C173.325 308.583 172.676 309.03 171.866 309.247C171.311 309.396 170.816 309.359 170.379 309.136C169.95 308.911 169.669 308.548 169.534 308.046C169.428 307.65 169.381 306.998 169.392 306.089L169.407 299.857C169.386 299.287 169.351 298.909 169.301 298.725C169.226 298.443 169.048 298.273 168.769 298.216C168.498 298.157 168.072 298.205 167.491 298.36L167.296 297.634C169.376 296.907 171.131 296.168 172.562 295.416L172.526 305.107C172.545 305.848 172.587 306.337 172.65 306.574C172.679 306.68 172.744 306.766 172.847 306.833C172.956 306.889 173.064 306.902 173.169 306.874C173.61 306.756 174.041 306.06 174.464 304.786L174.702 304.142Z" fill="#0D0D0D"/>
<path d="M185.304 294.606C185.462 295.196 185.445 295.8 185.252 296.418C185.067 297.034 184.771 297.599 184.362 298.114C183.959 298.619 183.477 299.111 182.917 299.591C182.364 300.061 181.82 300.461 181.286 300.793C180.75 301.116 180.232 301.386 179.734 301.605C179.747 302.111 179.809 302.571 179.92 302.985C180.316 304.464 181.122 305.041 182.337 304.715C182.68 304.623 182.987 304.465 183.257 304.242C183.525 304.01 183.758 303.716 183.956 303.361C184.151 302.998 184.299 302.689 184.401 302.435C184.509 302.17 184.635 301.83 184.779 301.414L185.695 301.664C185.505 302.328 185.309 302.9 185.107 303.378C184.905 303.857 184.643 304.342 184.322 304.834C184.007 305.315 183.615 305.717 183.145 306.041C182.678 306.374 182.136 306.623 181.519 306.788C180.313 307.111 179.231 306.981 178.273 306.398C177.314 305.815 176.672 304.916 176.347 303.701C176.085 302.724 176.031 301.658 176.184 300.504C176.337 299.349 176.655 298.264 177.137 297.248C177.617 296.223 178.275 295.315 179.111 294.525C179.944 293.726 180.863 293.192 181.867 292.923C182.641 292.716 183.355 292.756 184.008 293.043C184.667 293.319 185.099 293.84 185.304 294.606ZM182.655 294.651C182.49 294.035 182.143 293.797 181.615 293.939C181.192 294.052 180.836 294.393 180.544 294.962C180.26 295.519 180.061 296.186 179.948 296.962C179.833 297.729 179.755 298.424 179.714 299.048C179.68 299.661 179.672 300.211 179.689 300.697C180.852 300.036 181.72 299.172 182.292 298.103C182.864 297.034 182.985 295.884 182.655 294.651Z" fill="#0D0D0D"/>
<path d="M193.141 294.162L192.468 294.343L192.5 290.131L193.094 289.971C193.175 290.167 193.261 290.295 193.353 290.355C193.453 290.413 193.587 290.42 193.754 290.375C193.886 290.339 194.284 290.134 194.948 289.758C195.842 289.292 196.544 288.99 197.055 288.853C198.164 288.556 199.072 288.615 199.777 289.03C200.481 289.436 200.95 290.079 201.186 290.959C201.488 292.086 201.444 293.155 201.054 294.165C200.673 295.173 199.829 296.249 198.522 297.392L198.531 297.531C199.167 297.653 199.769 297.944 200.336 298.406C200.901 298.858 201.277 299.432 201.463 300.128C201.631 300.753 201.719 301.381 201.727 302.011C201.738 302.649 201.642 303.298 201.441 303.955C201.249 304.611 200.953 305.214 200.553 305.765C200.153 306.315 199.596 306.823 198.881 307.288C198.166 307.754 197.328 308.115 196.369 308.372C194.555 308.858 192.959 308.271 191.58 306.612L192.07 305.957C192.829 306.537 193.477 306.929 194.013 307.135C194.552 307.349 195.116 307.377 195.706 307.219C196.199 307.087 196.627 306.873 196.992 306.577C197.358 306.29 197.634 305.962 197.817 305.592C198.004 305.23 198.148 304.852 198.249 304.457C198.353 304.07 198.404 303.679 198.402 303.284C198.411 302.894 198.401 302.557 198.372 302.273C198.345 301.997 198.306 301.762 198.254 301.568C198.067 300.873 197.686 300.258 197.109 299.724C196.54 299.187 195.854 298.88 195.05 298.803L195.104 297.84C195.913 297.444 196.562 297.016 197.052 296.554C197.548 296.081 197.884 295.576 198.061 295.038C198.247 294.498 198.328 293.957 198.306 293.416C198.29 292.863 198.188 292.235 197.999 291.53C197.829 290.897 197.603 290.476 197.321 290.268C197.036 290.052 196.599 290.023 196.009 290.181C195.252 290.384 194.63 290.862 194.143 291.615C193.656 292.368 193.322 293.218 193.141 294.162Z" fill="#0D0D0D"/>
<path d="M215.32 293.811L215.327 293.837C214.877 295.364 214.402 296.477 213.9 297.178C213.406 297.867 212.758 298.319 211.957 298.533C211.384 298.687 210.893 298.667 210.483 298.475C210.08 298.272 209.811 297.92 209.676 297.418C209.582 297.066 209.513 296.527 209.47 295.803C209.436 295.076 209.442 294.362 209.49 293.66L209.524 292.731L205.959 293.686L205.911 299.899L202.688 300.762L202.728 294.835C202.753 291.62 202.738 289.907 202.681 289.695C202.613 289.44 202.466 289.296 202.24 289.262C202.022 289.226 201.625 289.275 201.048 289.411L200.85 288.672C202.429 288.192 204.13 287.477 205.951 286.526L205.968 292.665L209.547 291.706L209.694 285.863L212.956 284.989L212.777 294.464C212.774 295.333 212.788 295.824 212.818 295.939C212.88 296.168 213.038 296.248 213.293 296.18C213.522 296.118 213.725 295.922 213.9 295.592C214.076 295.262 214.32 294.607 214.633 293.627L215.32 293.811Z" fill="#0D0D0D"/>
<path d="M228.673 290.53C228.539 290.981 228.386 291.414 228.214 291.828C228.042 292.242 227.826 292.686 227.567 293.162C227.305 293.628 226.997 294.027 226.642 294.358C226.289 294.698 225.911 294.922 225.506 295.03C225.004 295.165 224.526 295.109 224.073 294.862C223.629 294.613 223.34 294.238 223.206 293.736C223.116 293.401 223.081 292.797 223.102 291.924L223.06 291.977C222.939 292.406 222.819 292.787 222.701 293.121C222.583 293.455 222.422 293.823 222.219 294.227C222.024 294.628 221.815 294.972 221.59 295.259C221.364 295.546 221.081 295.81 220.741 296.052C220.409 296.292 220.044 296.465 219.648 296.572C218.662 296.836 217.833 296.699 217.161 296.162C216.497 295.623 216.03 294.847 215.759 293.835C215.532 292.989 215.486 291.973 215.621 290.786C215.754 289.59 216.022 288.428 216.428 287.3C216.834 286.172 217.407 285.16 218.148 284.263C218.887 283.358 219.701 282.786 220.59 282.547C221.778 282.229 222.62 282.659 223.115 283.838L223.168 283.824L223.23 282.208L226.179 281.22C226.178 281.324 226.146 281.997 226.083 283.241C226.018 284.476 225.962 285.604 225.915 286.626C225.877 287.646 225.869 288.743 225.891 289.917C225.919 291.079 225.997 291.898 226.124 292.374C226.15 292.47 226.206 292.555 226.291 292.626C226.383 292.686 226.477 292.704 226.574 292.678C226.653 292.656 226.734 292.606 226.817 292.528C226.908 292.447 226.994 292.343 227.073 292.218C227.162 292.091 227.242 291.966 227.313 291.843C227.383 291.72 227.456 291.568 227.53 291.388C227.614 291.205 227.675 291.066 227.716 290.97C227.763 290.864 227.816 290.727 227.875 290.56C227.943 290.391 227.983 290.295 227.996 290.273L228.673 290.53ZM222.687 284.618C222.598 284.283 222.428 284.003 222.179 283.777C221.939 283.549 221.656 283.479 221.33 283.566C220.81 283.705 220.361 284.194 219.981 285.032C219.608 285.858 219.343 286.788 219.186 287.821C219.035 288.843 218.949 289.842 218.928 290.82C218.913 291.786 218.971 292.512 219.101 292.996C219.207 293.392 219.408 293.72 219.704 293.981C220 294.241 220.333 294.321 220.703 294.222C221.152 294.102 221.54 293.753 221.866 293.175C222.19 292.588 222.426 291.902 222.574 291.117C222.731 290.329 222.837 289.508 222.891 288.654C222.943 287.791 222.949 287.001 222.908 286.286C222.867 285.57 222.793 285.014 222.687 284.618Z" fill="#0D0D0D"/>
<path d="M239.825 277.761L239.653 287.262C239.65 288.131 239.664 288.623 239.694 288.737C239.756 288.966 239.914 289.047 240.169 288.978C240.416 288.912 240.648 288.704 240.865 288.353C241.08 287.993 241.337 287.349 241.635 286.42L242.321 286.604C241.94 287.999 241.479 289.076 240.936 289.834C240.392 290.584 239.715 291.067 238.905 291.284C237.734 291.598 237.004 291.218 236.717 290.144C236.625 289.801 236.575 288.79 236.569 287.112C236.57 285.423 236.599 284.089 236.658 283.111C236.053 284.726 235.555 285.916 235.166 286.681C234.785 287.444 234.398 288.005 234.004 288.366C233.61 288.726 233.1 288.99 232.475 289.157C231.128 289.518 230.275 289.03 229.916 287.691C229.737 287.022 229.666 285.999 229.702 284.621L229.702 283.984C229.704 283.361 229.661 282.881 229.571 282.547C229.498 282.274 229.352 282.115 229.132 282.07C228.91 282.016 228.486 282.054 227.861 282.184L227.666 281.458C228.858 281.082 230.431 280.439 232.386 279.528C232.57 279.441 232.814 279.329 233.116 279.191L232.891 284.318C232.856 285.281 232.879 285.912 232.959 286.211C233.082 286.669 233.333 286.847 233.711 286.745C234.231 286.606 234.758 285.932 235.292 284.722C235.369 284.551 235.484 284.294 235.637 283.951C235.791 283.607 235.886 283.384 235.925 283.279C235.971 283.172 236.041 282.993 236.134 282.742C236.236 282.488 236.297 282.292 236.317 282.155C236.345 282.015 236.386 281.815 236.439 281.556C236.493 281.296 236.527 281.037 236.542 280.778C236.556 280.51 236.571 280.199 236.59 279.845C236.608 279.491 236.626 279.081 236.642 278.614L239.825 277.761Z" fill="#0D0D0D"/>
<path d="M256.546 282.821C255.883 285.49 254.759 287.036 253.175 287.461C251.968 287.784 251.231 287.444 250.962 286.44C250.752 285.657 250.692 284.639 250.781 283.389L250.721 283.377C250.679 283.501 250.581 283.768 250.426 284.177C250.272 284.587 250.16 284.891 250.09 285.088C250.018 285.278 249.897 285.565 249.727 285.95C249.565 286.333 249.419 286.632 249.287 286.846C249.163 287.05 248.996 287.307 248.786 287.618C248.584 287.917 248.383 288.155 248.185 288.331C247.987 288.507 247.754 288.677 247.487 288.843C247.22 289.009 246.941 289.131 246.651 289.209C245.92 289.405 245.346 289.375 244.928 289.118C244.51 288.862 244.206 288.378 244.015 287.665C243.854 287.066 243.775 286.347 243.776 285.506C243.778 284.666 243.815 283.892 243.89 283.183C243.97 282.463 244.014 281.692 244.02 280.869C244.024 280.038 243.949 279.336 243.795 278.764C243.772 278.676 243.742 278.599 243.705 278.533C243.669 278.468 243.617 278.415 243.55 278.377C243.492 278.336 243.436 278.303 243.383 278.28C243.336 278.245 243.266 278.231 243.173 278.237C243.087 278.232 243.015 278.228 242.957 278.224C242.909 278.218 242.83 278.225 242.722 278.245C242.623 278.262 242.551 278.276 242.507 278.288C242.47 278.289 242.394 278.304 242.279 278.335C242.162 278.357 242.095 278.37 242.078 278.375L241.883 277.649C242.571 277.436 243.517 277.055 244.719 276.506C245.928 275.947 246.799 275.572 247.333 275.381L247.018 284.397C247.018 284.435 247.014 284.559 247.004 284.769C246.994 284.979 246.99 285.122 246.991 285.197C246.99 285.263 246.988 285.377 246.984 285.539C246.989 285.698 246.999 285.841 247.014 285.969C247.036 286.086 247.062 286.202 247.093 286.316C247.209 286.748 247.478 286.907 247.9 286.793C248.349 286.673 248.786 286.155 249.211 285.239C249.642 284.312 249.943 283.481 250.114 282.747C250.31 281.93 250.462 281.035 250.569 280.063C250.683 279.079 250.754 278.234 250.782 277.529C250.819 276.821 250.845 275.913 250.859 274.805L254.042 273.952C254.04 274.085 254.005 275.118 253.938 277.051C253.871 278.985 253.831 280.666 253.817 282.094C253.81 283.511 253.853 284.392 253.945 284.735C254.037 285.078 254.219 285.214 254.492 285.14C254.923 285.025 255.388 284.188 255.886 282.63L256.546 282.821Z" fill="#0D0D0D"/>
<path d="M261.015 280.93L261.195 275.843C261.215 275.073 261.182 274.53 261.098 274.213C261.022 273.931 260.843 273.757 260.561 273.691C260.288 273.623 259.839 273.654 259.213 273.783L259.019 273.057C259.419 272.931 259.846 272.783 260.301 272.614C260.756 272.445 261.212 272.262 261.668 272.064C262.125 271.866 262.509 271.697 262.82 271.557C263.132 271.417 263.477 271.259 263.854 271.082C264.24 270.903 264.449 270.805 264.482 270.786L266.9 279.07L269.738 269.746L273.436 268.755L273.264 278.256C273.261 279.125 273.274 279.617 273.305 279.731C273.371 279.978 273.532 280.067 273.787 279.999C274.016 279.937 274.218 279.742 274.394 279.411C274.57 279.081 274.814 278.426 275.127 277.446L275.813 277.63C275.379 279.143 274.91 280.245 274.407 280.937C273.912 281.626 273.264 282.078 272.463 282.293C271.89 282.446 271.399 282.427 270.989 282.234C270.586 282.031 270.317 281.679 270.182 281.177C270.159 281.089 270.137 281.01 270.118 280.939C270.106 280.858 270.093 280.79 270.079 280.738C270.071 280.674 270.06 280.596 270.045 280.506C270.039 280.413 270.034 280.344 270.031 280.297C270.028 280.251 270.028 280.161 270.03 280.029C270.032 279.896 270.034 279.796 270.035 279.73C270.036 279.664 270.038 279.531 270.042 279.332C270.045 279.133 270.05 278.976 270.057 278.861L270.201 271.052L266.112 284.263L265.253 284.493L262.138 274.189L261.776 281.603C261.765 281.88 261.755 282.09 261.746 282.234C261.735 282.369 261.705 282.59 261.655 282.896C261.605 283.202 261.544 283.449 261.472 283.638C261.4 283.827 261.292 284.059 261.148 284.333C261.014 284.605 260.848 284.834 260.652 285.018C260.454 285.194 260.204 285.37 259.902 285.545C259.609 285.718 259.273 285.855 258.894 285.957C258.357 286.101 257.844 286.054 257.356 285.817C256.857 285.573 256.554 285.253 256.448 284.857C256.321 284.382 256.348 283.992 256.531 283.688C256.712 283.376 256.978 283.172 257.33 283.078C257.849 282.939 258.335 283.059 258.785 283.438C258.933 283.568 259.05 283.669 259.135 283.741C259.227 283.801 259.355 283.856 259.519 283.907C259.682 283.948 259.846 283.946 260.014 283.902C260.154 283.864 260.279 283.802 260.388 283.716C260.495 283.621 260.582 283.504 260.648 283.364C260.72 283.212 260.778 283.074 260.82 282.949C260.869 282.814 260.902 282.64 260.921 282.427C260.948 282.212 260.964 282.043 260.968 281.919C260.982 281.793 260.991 281.616 260.996 281.388C261.001 281.16 261.007 281.007 261.015 280.93Z" fill="#0D0D0D"/>
<path d="M282.187 272.652C281.474 272.843 280.892 273.433 280.44 274.423C279.988 275.412 279.916 276.483 280.225 277.637C280.317 277.98 280.441 278.249 280.597 278.443C280.753 278.637 280.926 278.756 281.117 278.799C281.317 278.84 281.482 278.857 281.612 278.85C281.751 278.841 281.904 278.814 282.072 278.77L282.19 278.738C283.08 278.499 283.795 277.949 284.338 277.087C284.878 276.215 285.011 275.264 284.735 274.234C284.522 273.442 284.212 272.935 283.804 272.715C283.395 272.494 282.857 272.473 282.187 272.652ZM277.028 274.898C277.053 271.891 277.011 270.185 276.903 269.78C276.787 269.348 276.193 269.262 275.121 269.521L274.933 268.821C276.984 268.092 278.726 267.357 280.159 266.614L280.2 273.213L280.267 273.252C280.57 272.727 281.039 272.224 281.675 271.742C282.319 271.258 282.923 270.941 283.486 270.79C285.722 270.191 287.096 270.846 287.608 272.757C287.872 273.743 287.792 274.727 287.366 275.709C286.938 276.682 286.256 277.535 285.32 278.267C284.381 278.991 283.296 279.517 282.063 279.848C281.456 280.01 280.895 280.085 280.382 280.072C279.869 280.058 279.438 279.98 279.088 279.838C278.745 279.685 278.441 279.483 278.176 279.233C277.908 278.975 277.701 278.709 277.552 278.438C277.41 278.155 277.298 277.859 277.216 277.551C277.159 277.34 277.114 277.102 277.081 276.837C277.054 276.561 277.036 276.335 277.026 276.158C277.023 275.97 277.023 275.739 277.025 275.465C277.033 275.18 277.034 274.991 277.028 274.898ZM294.389 272.072L295.086 272.296C294.517 273.977 293.988 275.157 293.5 275.835C293.012 276.513 292.363 276.96 291.553 277.177C290.998 277.326 290.502 277.289 290.065 277.066C289.637 276.842 289.356 276.478 289.221 275.976C289.115 275.58 289.067 274.928 289.079 274.019L289.093 267.787C289.073 267.217 289.038 266.839 288.988 266.655C288.913 266.373 288.735 266.203 288.455 266.146C288.185 266.087 287.759 266.135 287.178 266.29L286.983 265.564C289.062 264.837 290.818 264.098 292.249 263.346L292.213 273.037C292.232 273.778 292.273 274.267 292.337 274.504C292.365 274.61 292.431 274.696 292.534 274.763C292.643 274.819 292.75 274.832 292.856 274.804C293.296 274.686 293.728 273.99 294.151 272.716L294.389 272.072Z" fill="#0D0D0D"/>
<path d="M304.991 262.536C305.149 263.126 305.131 263.73 304.938 264.348C304.754 264.964 304.457 265.529 304.048 266.045C303.645 266.549 303.164 267.041 302.604 267.521C302.05 267.991 301.506 268.391 300.973 268.723C300.436 269.046 299.919 269.316 299.421 269.535C299.434 270.041 299.496 270.501 299.607 270.915C300.003 272.394 300.809 272.971 302.023 272.645C302.367 272.553 302.674 272.395 302.944 272.172C303.212 271.94 303.445 271.646 303.642 271.291C303.837 270.928 303.986 270.619 304.088 270.365C304.196 270.1 304.322 269.76 304.465 269.344L305.381 269.594C305.191 270.258 304.995 270.83 304.793 271.308C304.591 271.787 304.33 272.272 304.009 272.764C303.694 273.245 303.302 273.647 302.832 273.971C302.364 274.304 301.822 274.553 301.206 274.718C300 275.041 298.918 274.912 297.959 274.328C297.001 273.745 296.359 272.846 296.034 271.631C295.772 270.654 295.717 269.588 295.87 268.434C296.023 267.279 296.341 266.194 296.824 265.178C297.304 264.153 297.962 263.245 298.798 262.455C299.631 261.656 300.55 261.122 301.553 260.853C302.328 260.646 303.042 260.686 303.694 260.973C304.353 261.249 304.785 261.771 304.991 262.536ZM302.342 262.581C302.177 261.965 301.83 261.727 301.302 261.869C300.879 261.982 300.522 262.323 300.231 262.892C299.946 263.449 299.748 264.116 299.635 264.892C299.519 265.659 299.441 266.354 299.401 266.978C299.367 267.591 299.359 268.141 299.376 268.627C300.539 267.966 301.406 267.102 301.979 266.033C302.551 264.964 302.672 263.814 302.342 262.581Z" fill="#0D0D0D"/>
<path d="M159.824 330.365C159.975 330.928 159.95 331.435 159.75 331.885C159.559 332.333 159.19 332.63 158.644 332.776C158.23 332.887 157.834 332.851 157.455 332.67C157.074 332.48 156.829 332.182 156.72 331.777C156.647 331.504 156.658 331.175 156.754 330.791C156.855 330.396 156.893 330.15 156.867 330.053C156.827 329.904 156.73 329.807 156.577 329.763C156.433 329.717 156.281 329.715 156.123 329.757C155.568 329.906 155.113 330.358 154.759 331.113C154.402 331.86 154.17 332.701 154.062 333.636C153.963 334.568 153.923 335.475 153.942 336.357C153.97 337.237 154.051 337.927 154.186 338.429C154.382 339.16 154.702 339.739 155.147 340.167C155.601 340.593 156.171 340.714 156.858 340.53C157.21 340.435 157.53 340.274 157.818 340.046C158.115 339.816 158.369 339.53 158.58 339.191C158.791 338.851 158.961 338.537 159.091 338.247C159.227 337.946 159.365 337.598 159.505 337.202L160.401 337.485C160.148 338.195 159.914 338.782 159.698 339.245C159.489 339.697 159.211 340.173 158.863 340.672C158.522 341.16 158.107 341.563 157.617 341.883C157.138 342.21 156.573 342.46 155.921 342.635C154.715 342.958 153.637 342.827 152.688 342.242C151.738 341.656 151.101 340.756 150.775 339.541C150.523 338.599 150.47 337.556 150.617 336.413C150.763 335.27 151.063 334.189 151.517 333.171C151.977 332.142 152.61 331.227 153.414 330.426C154.217 329.617 155.102 329.082 156.07 328.823C156.59 328.684 157.094 328.629 157.583 328.658C158.081 328.685 158.544 328.844 158.971 329.136C159.396 329.418 159.68 329.828 159.824 330.365Z" fill="#0D0D0D"/>
<path d="M168.82 328.096C168.511 326.943 167.925 326.481 167.063 326.713C166.411 326.887 165.902 327.434 165.535 328.353C165.177 329.27 164.969 330.307 164.911 331.465C164.862 332.62 164.875 333.725 164.95 334.78C165.032 335.825 165.153 336.646 165.313 337.245C165.386 337.518 165.467 337.751 165.557 337.944C165.646 338.137 165.766 338.318 165.914 338.485C166.061 338.644 166.245 338.751 166.467 338.804C166.686 338.849 166.937 338.834 167.219 338.758C167.826 338.596 168.297 338.045 168.63 337.106C168.97 336.157 169.161 335.091 169.203 333.91C169.245 332.728 169.228 331.606 169.15 330.541C169.081 329.474 168.971 328.659 168.82 328.096ZM167.131 325.859C168.364 325.529 169.479 325.641 170.476 326.194C171.483 326.746 172.145 327.615 172.464 328.804C172.763 329.922 172.843 331.08 172.701 332.279C172.558 333.469 172.241 334.558 171.751 335.548C171.268 336.527 170.617 337.39 169.799 338.138C168.986 338.875 168.087 339.375 167.101 339.639C165.86 339.972 164.733 339.868 163.72 339.328C162.707 338.788 162.046 337.941 161.737 336.788C161.341 335.309 161.324 333.785 161.687 332.215C162.058 330.644 162.735 329.278 163.717 328.119C164.699 326.959 165.837 326.206 167.131 325.859Z" fill="#0D0D0D"/>
<path d="M181.532 324.69C181.223 323.536 180.637 323.075 179.774 323.307C179.123 323.481 178.614 324.028 178.246 324.947C177.888 325.864 177.68 326.901 177.622 328.059C177.573 329.214 177.586 330.319 177.661 331.374C177.743 332.419 177.864 333.24 178.025 333.839C178.098 334.112 178.179 334.345 178.269 334.538C178.358 334.731 178.477 334.911 178.626 335.079C178.772 335.238 178.956 335.344 179.178 335.398C179.398 335.443 179.649 335.428 179.93 335.352C180.538 335.19 181.008 334.639 181.342 333.7C181.682 332.751 181.873 331.685 181.915 330.504C181.957 329.322 181.939 328.199 181.862 327.135C181.793 326.068 181.683 325.253 181.532 324.69ZM174.608 328.06L174.615 328.086C174.989 326.806 175.651 325.633 176.602 324.567C177.561 323.499 178.644 322.803 179.85 322.48C181.082 322.149 182.198 322.261 183.195 322.815C184.202 323.366 184.864 324.236 185.182 325.424C185.482 326.542 185.561 327.701 185.42 328.899C185.276 330.089 184.96 331.179 184.47 332.169C183.987 333.147 183.336 334.011 182.517 334.758C181.705 335.495 180.806 335.995 179.82 336.26C178.543 336.602 177.404 336.487 176.401 335.916C175.399 335.345 174.714 334.372 174.346 332.999C173.058 328.192 173.618 324.05 176.027 320.574C176.552 319.82 177.199 319.137 177.969 318.525C178.739 317.913 179.495 317.423 180.236 317.054C180.977 316.686 181.687 316.359 182.365 316.073C183.044 315.788 183.617 315.516 184.086 315.258C184.561 314.989 184.85 314.728 184.952 314.474L185.546 314.315C185.408 315.173 185.186 315.912 184.88 316.532C184.575 317.151 184.207 317.646 183.778 318.016C183.357 318.383 182.895 318.701 182.391 318.968C181.896 319.233 181.354 319.482 180.765 319.715C180.185 319.946 179.618 320.187 179.063 320.44C178.516 320.69 177.945 321.041 177.349 321.494C176.76 321.935 176.233 322.453 175.77 323.049C175.396 323.517 175.082 324.196 174.83 325.084C174.577 325.973 174.477 326.972 174.528 328.081L174.608 328.06Z" fill="#0D0D0D"/>
<path d="M192.398 325.699C191.685 325.89 191.102 326.48 190.65 327.47C190.198 328.459 190.126 329.53 190.435 330.683C190.527 331.027 190.651 331.296 190.807 331.49C190.963 331.684 191.136 331.803 191.327 331.846C191.527 331.887 191.692 331.904 191.822 331.897C191.961 331.888 192.114 331.861 192.282 331.816L192.401 331.785C193.29 331.546 194.006 330.996 194.548 330.133C195.089 329.262 195.221 328.311 194.945 327.281C194.732 326.489 194.422 325.982 194.014 325.761C193.605 325.541 193.067 325.52 192.398 325.699ZM187.239 327.945C187.263 324.938 187.221 323.231 187.113 322.826C186.997 322.395 186.403 322.309 185.331 322.568L185.143 321.868C187.194 321.139 188.936 320.404 190.369 319.661L190.411 326.26L190.478 326.298C190.781 325.774 191.25 325.271 191.885 324.789C192.529 324.305 193.133 323.988 193.696 323.837C195.932 323.237 197.306 323.893 197.818 325.804C198.083 326.79 198.002 327.774 197.576 328.756C197.148 329.729 196.466 330.582 195.53 331.314C194.591 332.037 193.506 332.564 192.273 332.894C191.666 333.057 191.105 333.132 190.592 333.118C190.079 333.105 189.648 333.027 189.298 332.885C188.955 332.731 188.651 332.53 188.386 332.28C188.119 332.021 187.911 331.756 187.763 331.485C187.621 331.202 187.508 330.906 187.426 330.598C187.369 330.387 187.324 330.149 187.291 329.884C187.264 329.608 187.246 329.382 187.237 329.205C187.233 329.017 187.233 328.786 187.235 328.512C187.243 328.227 187.245 328.038 187.239 327.945ZM204.599 325.119L205.296 325.343C204.727 327.024 204.199 328.203 203.71 328.882C203.222 329.56 202.573 330.007 201.763 330.224C201.208 330.373 200.712 330.336 200.275 330.113C199.847 329.888 199.566 329.525 199.431 329.023C199.325 328.627 199.278 327.974 199.289 327.066L199.303 320.834C199.283 320.264 199.248 319.886 199.198 319.701C199.123 319.42 198.945 319.25 198.666 319.193C198.395 319.133 197.969 319.182 197.388 319.337L197.193 318.611C199.273 317.884 201.028 317.145 202.459 316.393L202.423 326.084C202.442 326.825 202.483 327.314 202.547 327.551C202.575 327.657 202.641 327.743 202.744 327.81C202.853 327.866 202.961 327.879 203.066 327.851C203.506 327.733 203.938 327.037 204.361 325.763L204.599 325.119Z" fill="#0D0D0D"/>
<path d="M225.781 319.995C225.625 320.575 225.473 321.064 225.325 321.462C225.186 321.858 224.989 322.302 224.734 322.795C224.486 323.277 224.169 323.678 223.783 323.999C223.406 324.317 222.97 324.542 222.477 324.674C221.218 325.011 220.432 324.594 220.118 323.423C219.934 322.737 219.88 321.742 219.955 320.438C220.031 319.135 220.124 317.897 220.234 316.726C220.343 315.545 220.348 314.77 220.248 314.401C220.197 314.207 220.095 314.074 219.943 314.001C219.798 313.917 219.629 313.902 219.435 313.953C219.18 314.022 218.929 314.212 218.682 314.523C218.435 314.835 218.217 315.219 218.028 315.675C217.848 316.129 217.7 316.527 217.584 316.87C217.474 317.201 217.373 317.544 217.279 317.9C217.165 318.317 217.065 318.773 216.981 319.268C216.903 319.751 216.842 320.178 216.8 320.548C216.755 320.909 216.712 321.383 216.671 321.969C216.639 322.553 216.618 322.984 216.607 323.26C216.596 323.537 216.579 324.018 216.555 324.704C216.537 325.378 216.527 325.815 216.524 326.014L213.275 326.885C213.279 326.865 213.328 325.903 213.422 324C213.525 322.095 213.597 320.391 213.638 318.89C213.688 317.385 213.675 316.492 213.6 316.211C213.555 316.043 213.471 315.905 213.347 315.797C213.224 315.688 213.079 315.657 212.911 315.701C212.744 315.746 212.475 315.993 212.105 316.441C211.649 317.064 211.268 317.864 210.964 318.842C210.66 319.82 210.446 320.868 210.321 321.986C210.196 323.105 210.113 324.118 210.073 325.025C210.031 325.923 210.015 326.834 210.026 327.755L206.751 328.633C206.748 328.445 206.768 327.411 206.812 325.531C206.862 323.64 206.885 321.93 206.882 320.403C206.887 318.873 206.843 317.936 206.751 317.593C206.624 317.117 206.182 316.981 205.425 317.184L205.108 317.269L204.913 316.542C207.253 315.698 208.989 314.974 210.12 314.369L209.844 319.836L209.937 319.867C210.445 318.278 210.862 317.138 211.186 316.447C212.046 314.622 213.088 313.545 214.312 313.217C214.858 313.071 215.333 313.118 215.737 313.359C216.15 313.597 216.431 313.994 216.58 314.549C216.766 315.244 216.792 316.167 216.656 317.317L216.697 317.362C216.837 316.9 216.953 316.524 217.046 316.235C217.147 315.944 217.29 315.561 217.474 315.087C217.656 314.605 217.845 314.2 218.041 313.874C218.237 313.548 218.463 313.214 218.72 312.871C218.984 312.517 219.284 312.229 219.621 312.007C219.956 311.776 220.312 311.609 220.691 311.508C221.351 311.331 221.922 311.386 222.405 311.672C222.893 311.946 223.226 312.414 223.403 313.074C223.583 313.743 223.622 314.7 223.521 315.944C223.427 317.177 223.32 318.381 223.2 319.554C223.087 320.717 223.099 321.554 223.236 322.064C223.269 322.188 223.34 322.277 223.45 322.333C223.556 322.38 223.672 322.386 223.795 322.353C223.883 322.33 223.973 322.263 224.067 322.153C224.166 322.032 224.254 321.9 224.329 321.757C224.404 321.615 224.488 321.436 224.582 321.223C224.673 321 224.743 320.821 224.791 320.685C224.846 320.538 224.909 320.366 224.978 320.168C225.046 319.961 225.085 319.842 225.095 319.811L225.781 319.995Z" fill="#0D0D0D"/>
<path d="M239.815 316.292C239.152 318.96 238.028 320.507 236.444 320.932C235.237 321.255 234.5 320.915 234.231 319.911C234.021 319.127 233.961 318.11 234.05 316.86L233.99 316.847C233.948 316.972 233.85 317.239 233.695 317.648C233.541 318.058 233.429 318.361 233.359 318.559C233.287 318.748 233.166 319.036 232.996 319.421C232.834 319.804 232.688 320.103 232.556 320.317C232.432 320.52 232.265 320.778 232.055 321.088C231.853 321.388 231.652 321.626 231.454 321.802C231.256 321.977 231.023 322.148 230.756 322.314C230.489 322.48 230.21 322.602 229.92 322.68C229.189 322.875 228.615 322.845 228.197 322.589C227.779 322.333 227.475 321.849 227.284 321.135C227.123 320.537 227.044 319.817 227.045 318.977C227.047 318.137 227.084 317.363 227.159 316.654C227.239 315.934 227.283 315.163 227.289 314.34C227.293 313.509 227.218 312.807 227.064 312.235C227.041 312.147 227.011 312.07 226.974 312.004C226.938 311.938 226.886 311.886 226.819 311.847C226.761 311.806 226.705 311.774 226.652 311.751C226.605 311.716 226.535 311.702 226.442 311.708C226.356 311.703 226.284 311.698 226.226 311.695C226.178 311.689 226.099 311.696 225.991 311.715C225.892 311.733 225.82 311.747 225.776 311.759C225.739 311.76 225.663 311.775 225.548 311.806C225.431 311.828 225.364 311.841 225.347 311.846L225.152 311.119C225.84 310.907 226.786 310.526 227.988 309.977C229.197 309.417 230.068 309.042 230.603 308.852L230.287 317.868C230.287 317.906 230.283 318.03 230.273 318.24C230.263 318.45 230.259 318.593 230.26 318.668C230.259 318.734 230.257 318.848 230.253 319.009C230.258 319.169 230.268 319.312 230.283 319.44C230.305 319.557 230.331 319.673 230.362 319.787C230.478 320.218 230.747 320.377 231.169 320.264C231.618 320.144 232.055 319.626 232.48 318.71C232.911 317.783 233.212 316.952 233.383 316.217C233.579 315.401 233.731 314.506 233.838 313.533C233.952 312.55 234.023 311.705 234.051 311C234.088 310.291 234.114 309.383 234.128 308.275L237.311 307.423C237.309 307.555 237.274 308.588 237.207 310.522C237.14 312.455 237.1 314.136 237.086 315.565C237.079 316.982 237.122 317.863 237.214 318.206C237.306 318.549 237.488 318.684 237.761 318.611C238.192 318.496 238.657 317.659 239.155 316.1L239.815 316.292Z" fill="#0D0D0D"/>
<path d="M254.393 312.3C253.866 313.782 253.478 314.749 253.232 315.202C252.762 316.092 252.146 316.663 251.383 316.914C251.315 316.942 251.242 316.966 251.162 316.988C250.643 317.127 250.139 317.13 249.65 316.997C249.171 316.861 248.867 316.555 248.74 316.08C248.676 315.842 248.639 315.125 248.63 313.929L248.579 311.679L247.985 311.838C247.653 311.936 247.365 312.254 247.122 312.791C246.886 313.317 246.707 314.006 246.587 314.859C246.501 315.42 246.378 315.93 246.218 316.388C246.057 316.846 245.861 317.224 245.63 317.522C245.398 317.82 245.178 318.072 244.969 318.279C244.761 318.486 244.509 318.657 244.215 318.793C243.93 318.926 243.705 319.019 243.54 319.073C243.386 319.133 243.191 319.195 242.953 319.258L242.9 319.272C241.615 319.617 240.6 319.228 239.856 318.107L240.386 317.71C241.019 318.276 241.574 318.495 242.049 318.368C242.269 318.309 242.435 318.152 242.545 317.895C242.665 317.637 242.739 317.353 242.77 317.043C242.8 316.733 242.864 316.357 242.963 315.915C243.062 315.474 243.199 315.088 243.375 314.757C243.703 314.151 244.022 313.721 244.331 313.468C244.647 313.204 245.206 312.861 246.009 312.438C246.173 312.347 246.297 312.281 246.38 312.24C246.338 312.081 246.32 311.982 246.329 311.942C245.932 312.048 245.478 312.094 244.965 312.081C244.46 312.065 243.949 311.99 243.432 311.855C242.912 311.711 242.444 311.459 242.026 311.099C241.609 310.739 241.331 310.299 241.192 309.78C241.038 309.208 241.093 308.655 241.356 308.122C241.617 307.581 242.012 307.121 242.543 306.742C243.081 306.353 243.639 306.024 244.218 305.756C244.795 305.479 245.378 305.261 245.968 305.103L252.082 303.465L252.024 305.306L251.83 312.93C251.829 313.771 251.846 314.257 251.882 314.389C251.95 314.644 252.112 314.738 252.367 314.669C252.596 314.608 252.794 314.413 252.961 314.085C253.137 313.755 253.384 313.094 253.704 312.103L254.393 312.3ZM247.197 310.959L248.65 310.57L248.767 306.887C248.769 306.471 248.759 306.223 248.738 306.144C248.684 305.942 248.523 305.834 248.255 305.821C247.994 305.796 247.529 305.874 246.86 306.053C246.71 306.093 246.542 306.152 246.355 306.231C246.175 306.298 245.941 306.427 245.652 306.617C245.372 306.805 245.133 307.021 244.933 307.263C244.743 307.503 244.602 307.823 244.512 308.225C244.428 308.615 244.448 309.044 244.573 309.511C244.623 309.696 244.689 309.871 244.771 310.038C244.851 310.196 244.982 310.387 245.165 310.612C245.355 310.825 245.625 310.97 245.975 311.046C246.323 311.113 246.731 311.084 247.197 310.959Z" fill="#0D0D0D"/>
<path d="M276.051 299.222C276.202 299.786 276.177 300.292 275.977 300.742C275.785 301.19 275.417 301.487 274.871 301.633C274.457 301.744 274.061 301.709 273.682 301.527C273.3 301.337 273.056 301.039 272.947 300.634C272.874 300.361 272.885 300.033 272.98 299.648C273.082 299.253 273.12 299.007 273.094 298.91C273.054 298.761 272.957 298.664 272.804 298.62C272.659 298.574 272.508 298.572 272.349 298.614C271.795 298.763 271.34 299.215 270.986 299.971C270.629 300.717 270.397 301.558 270.289 302.493C270.189 303.425 270.149 304.332 270.169 305.214C270.197 306.094 270.278 306.784 270.412 307.286C270.608 308.017 270.929 308.596 271.374 309.024C271.827 309.45 272.398 309.571 273.084 309.387C273.436 309.293 273.757 309.131 274.045 308.903C274.341 308.673 274.595 308.388 274.806 308.048C275.017 307.708 275.188 307.394 275.318 307.104C275.454 306.803 275.592 306.455 275.731 306.059L276.628 306.343C276.375 307.052 276.14 307.639 275.925 308.102C275.716 308.555 275.437 309.03 275.09 309.529C274.749 310.017 274.333 310.421 273.843 310.741C273.365 311.067 272.8 311.317 272.148 311.492C270.942 311.815 269.864 311.684 268.915 311.099C267.965 310.513 267.328 309.613 267.002 308.398C266.75 307.456 266.697 306.413 266.843 305.27C266.99 304.127 267.29 303.046 267.744 302.028C268.204 300.999 268.837 300.084 269.641 299.283C270.443 298.474 271.329 297.94 272.297 297.68C272.817 297.541 273.321 297.486 273.81 297.515C274.308 297.542 274.77 297.702 275.198 297.993C275.622 298.275 275.907 298.685 276.051 299.222Z" fill="#0D0D0D"/>
<path d="M145.218 369.933L145.397 364.846C145.418 364.076 145.385 363.533 145.3 363.216C145.225 362.934 145.046 362.76 144.764 362.694C144.491 362.626 144.042 362.657 143.416 362.787L143.221 362.06C143.622 361.934 144.049 361.787 144.504 361.618C144.959 361.449 145.414 361.265 145.871 361.067C146.328 360.869 146.712 360.701 147.023 360.56C147.335 360.42 147.679 360.262 148.057 360.085C148.443 359.906 148.652 359.808 148.685 359.79L151.103 368.073L153.941 358.749L157.638 357.759L157.466 367.26C157.463 368.129 157.477 368.62 157.508 368.735C157.574 368.981 157.735 369.07 157.99 369.002C158.219 368.94 158.421 368.745 158.597 368.415C158.773 368.084 159.017 367.429 159.33 366.449L160.016 366.633C159.582 368.146 159.113 369.248 158.609 369.94C158.115 370.629 157.467 371.081 156.665 371.296C156.093 371.449 155.602 371.43 155.192 371.238C154.788 371.034 154.519 370.682 154.385 370.18C154.361 370.092 154.34 370.013 154.321 369.942C154.309 369.861 154.296 369.794 154.281 369.741C154.274 369.677 154.262 369.6 154.248 369.509C154.242 369.416 154.237 369.347 154.234 369.3C154.231 369.254 154.231 369.165 154.233 369.032C154.235 368.899 154.237 368.8 154.238 368.733C154.239 368.667 154.241 368.534 154.244 368.335C154.248 368.136 154.253 367.979 154.26 367.864L154.404 360.055L150.315 373.266L149.456 373.496L146.341 363.192L145.978 370.607C145.968 370.883 145.958 371.093 145.949 371.237C145.938 371.372 145.908 371.593 145.858 371.899C145.807 372.205 145.746 372.452 145.674 372.641C145.602 372.831 145.495 373.062 145.351 373.337C145.216 373.609 145.051 373.837 144.855 374.022C144.657 374.197 144.407 374.373 144.105 374.548C143.811 374.721 143.475 374.858 143.097 374.96C142.56 375.104 142.047 375.057 141.559 374.82C141.06 374.576 140.757 374.256 140.651 373.86C140.523 373.385 140.551 372.995 140.734 372.691C140.914 372.379 141.181 372.175 141.533 372.081C142.052 371.942 142.537 372.062 142.988 372.441C143.136 372.571 143.253 372.672 143.338 372.744C143.43 372.804 143.558 372.859 143.722 372.91C143.884 372.951 144.049 372.95 144.216 372.905C144.357 372.867 144.482 372.805 144.591 372.719C144.698 372.625 144.784 372.507 144.851 372.367C144.923 372.215 144.981 372.077 145.023 371.953C145.071 371.817 145.105 371.643 145.123 371.43C145.151 371.215 145.167 371.046 145.171 370.922C145.185 370.796 145.194 370.619 145.199 370.391C145.204 370.163 145.21 370.011 145.218 369.933Z" fill="#0D0D0D"/>
<path d="M169.879 356.715C170.037 357.305 170.019 357.909 169.826 358.527C169.642 359.142 169.346 359.708 168.936 360.223C168.534 360.727 168.052 361.22 167.492 361.7C166.938 362.169 166.395 362.57 165.861 362.901C165.324 363.224 164.807 363.495 164.309 363.713C164.322 364.22 164.384 364.68 164.495 365.093C164.891 366.572 165.697 367.149 166.912 366.824C167.255 366.732 167.562 366.574 167.832 366.35C168.1 366.118 168.333 365.825 168.53 365.47C168.726 365.106 168.874 364.797 168.976 364.544C169.084 364.279 169.21 363.938 169.353 363.522L170.27 363.772C170.08 364.437 169.884 365.008 169.682 365.487C169.48 365.966 169.218 366.451 168.897 366.943C168.582 367.423 168.19 367.826 167.72 368.15C167.252 368.483 166.71 368.732 166.094 368.897C164.888 369.22 163.806 369.09 162.848 368.507C161.889 367.924 161.247 367.025 160.922 365.81C160.66 364.833 160.606 363.767 160.759 362.612C160.912 361.458 161.229 360.373 161.712 359.356C162.192 358.331 162.85 357.424 163.686 356.634C164.519 355.835 165.438 355.301 166.441 355.032C167.216 354.824 167.93 354.864 168.582 355.152C169.242 355.428 169.674 355.949 169.879 356.715ZM167.23 356.76C167.065 356.143 166.718 355.906 166.19 356.048C165.767 356.161 165.41 356.502 165.119 357.07C164.835 357.628 164.636 358.295 164.523 359.07C164.407 359.837 164.33 360.533 164.289 361.157C164.255 361.77 164.247 362.319 164.264 362.806C165.427 362.145 166.294 361.28 166.867 360.211C167.439 359.143 167.56 357.992 167.23 356.76Z" fill="#0D0D0D"/>
<path d="M170.688 355.479L170.493 354.753C171.517 354.346 173.188 353.63 175.508 352.602L175.323 355.978C175.822 354.637 176.335 353.645 176.861 353.004C177.394 352.352 178.044 351.923 178.81 351.718C179.699 351.479 180.487 351.585 181.173 352.033C181.859 352.481 182.337 353.207 182.606 354.211C182.91 355.347 182.999 356.559 182.872 357.848C182.746 359.137 182.45 360.32 181.984 361.398C181.526 362.474 180.915 363.416 180.151 364.224C179.395 365.031 178.572 365.553 177.683 365.792C177.402 365.867 177.131 365.897 176.872 365.881C176.625 365.872 176.23 365.808 175.688 365.689L175.682 366.88C175.685 368.757 175.724 369.836 175.799 370.118C175.887 370.444 176.076 370.638 176.366 370.702C176.657 370.766 177.134 370.713 177.796 370.545L177.991 371.272L171.256 373.076L171.061 372.35L171.233 372.304C171.788 372.155 172.15 371.922 172.319 371.603C172.479 371.286 172.559 370.684 172.557 369.798L172.451 358.574C172.454 356.997 172.416 356.064 172.338 355.773C172.269 355.518 172.131 355.371 171.923 355.332C171.714 355.294 171.303 355.343 170.688 355.479ZM179.232 355.143C179.135 354.782 178.957 354.486 178.696 354.253C178.436 354.021 178.13 353.952 177.778 354.047C177.267 354.183 176.844 354.542 176.509 355.123C176.183 355.701 175.952 356.319 175.817 356.978C175.71 357.564 175.624 358.809 175.558 360.713C175.493 362.618 175.516 363.777 175.627 364.191C175.712 364.508 175.881 364.736 176.136 364.876C176.39 365.015 176.676 365.042 176.993 364.957C177.591 364.797 178.092 364.29 178.496 363.436C178.899 362.583 179.166 361.624 179.297 360.561C179.427 359.498 179.486 358.467 179.473 357.47C179.459 356.465 179.378 355.689 179.232 355.143Z" fill="#0D0D0D"/>
<path d="M191.758 350.938C191.449 349.784 190.863 349.323 190 349.554C189.348 349.729 188.839 350.276 188.472 351.195C188.114 352.112 187.906 353.149 187.848 354.306C187.799 355.461 187.812 356.567 187.887 357.622C187.969 358.667 188.09 359.488 188.25 360.087C188.323 360.36 188.405 360.593 188.494 360.786C188.584 360.979 188.703 361.159 188.852 361.327C188.998 361.486 189.182 361.592 189.404 361.646C189.624 361.691 189.874 361.676 190.156 361.6C190.764 361.437 191.234 360.887 191.568 359.948C191.908 358.998 192.099 357.933 192.141 356.751C192.183 355.57 192.165 354.447 192.087 353.383C192.019 352.316 191.909 351.501 191.758 350.938ZM190.068 348.701C191.301 348.371 192.416 348.482 193.414 349.036C194.42 349.587 195.083 350.457 195.401 351.646C195.701 352.764 195.78 353.922 195.639 355.121C195.495 356.31 195.178 357.4 194.689 358.39C194.206 359.369 193.555 360.232 192.736 360.98C191.924 361.716 191.024 362.217 190.038 362.481C188.797 362.814 187.67 362.71 186.657 362.17C185.644 361.63 184.983 360.783 184.674 359.63C184.278 358.151 184.261 356.626 184.624 355.057C184.995 353.486 185.672 352.12 186.654 350.96C187.636 349.801 188.774 349.048 190.068 348.701Z" fill="#0D0D0D"/>
<path d="M210.895 352.972C210.77 353.42 210.656 353.805 210.553 354.125C210.448 354.436 210.297 354.807 210.101 355.237C209.913 355.665 209.712 356.021 209.495 356.305C209.279 356.589 209.006 356.856 208.676 357.105C208.349 357.362 207.987 357.544 207.591 357.65C206.332 357.988 205.546 357.571 205.232 356.4C205.053 355.731 204.998 354.736 205.069 353.415C205.137 352.085 205.224 350.825 205.33 349.636C205.436 348.447 205.442 347.677 205.348 347.324C205.303 347.157 205.195 347.035 205.023 346.958C204.861 346.879 204.691 346.863 204.515 346.911C204.084 347.026 203.697 347.361 203.355 347.915C203.01 348.46 202.737 349.147 202.534 349.975C202.329 350.794 202.155 351.643 202.013 352.521C201.868 353.39 201.765 354.29 201.703 355.222C201.651 356.152 201.614 356.912 201.593 357.503C201.569 358.084 201.558 358.588 201.558 359.012L198.283 359.89C198.284 359.823 198.302 358.799 198.338 356.818C198.382 354.834 198.403 353.082 198.402 351.564C198.398 350.036 198.359 349.131 198.283 348.849C198.156 348.374 197.709 348.239 196.943 348.444L196.626 348.529L196.432 347.803C197.884 347.413 199.624 346.688 201.651 345.626L201.375 351.092L201.469 351.124C201.507 351.019 201.607 350.724 201.769 350.237C201.931 349.75 202.047 349.407 202.116 349.209C202.186 349.011 202.311 348.685 202.491 348.231C202.68 347.775 202.838 347.431 202.965 347.199C203.1 346.964 203.281 346.67 203.507 346.317C203.74 345.953 203.962 345.672 204.173 345.474C204.393 345.273 204.647 345.078 204.936 344.887C205.233 344.694 205.54 344.555 205.857 344.47C206.561 344.282 207.128 344.319 207.557 344.581C207.983 344.835 208.295 345.327 208.49 346.058C208.665 346.709 208.709 347.665 208.622 348.924C208.541 350.173 208.445 351.382 208.334 352.554C208.23 353.714 208.237 354.514 208.355 354.955C208.39 355.087 208.456 355.192 208.553 355.27C208.649 355.348 208.759 355.37 208.882 355.337C208.97 355.313 209.055 355.262 209.138 355.183C209.221 355.105 209.304 354.993 209.388 354.848C209.472 354.703 209.545 354.57 209.607 354.449C209.666 354.32 209.731 354.156 209.801 353.959C209.879 353.758 209.934 353.611 209.966 353.518C210.004 353.413 210.05 353.269 210.104 353.085C210.168 352.898 210.202 352.799 210.209 352.788L210.895 352.972Z" fill="#0D0D0D"/>
<path d="M210.249 344.879L210.054 344.152C211.078 343.746 212.749 343.029 215.069 342.002L214.884 345.378C215.383 344.036 215.896 343.045 216.422 342.404C216.955 341.751 217.605 341.323 218.371 341.117C219.26 340.879 220.048 340.984 220.734 341.432C221.42 341.881 221.898 342.607 222.167 343.61C222.471 344.746 222.56 345.958 222.433 347.247C222.307 348.536 222.011 349.72 221.545 350.798C221.087 351.873 220.476 352.815 219.712 353.624C218.956 354.431 218.133 354.953 217.244 355.191C216.963 355.267 216.692 355.297 216.433 355.281C216.186 355.272 215.791 355.208 215.249 355.089L215.243 356.279C215.246 358.156 215.285 359.236 215.36 359.518C215.448 359.843 215.637 360.038 215.927 360.102C216.218 360.165 216.695 360.113 217.357 359.945L217.552 360.671L210.817 362.476L210.622 361.75L210.794 361.704C211.349 361.555 211.711 361.321 211.88 361.002C212.04 360.686 212.12 360.084 212.118 359.197L212.012 347.973C212.015 346.397 211.977 345.463 211.899 345.173C211.83 344.917 211.692 344.771 211.484 344.732C211.275 344.694 210.864 344.742 210.249 344.879ZM218.793 344.543C218.696 344.182 218.518 343.885 218.257 343.653C217.997 343.421 217.691 343.352 217.339 343.446C216.828 343.583 216.405 343.942 216.07 344.522C215.744 345.1 215.513 345.719 215.378 346.378C215.271 346.963 215.185 348.208 215.119 350.113C215.054 352.018 215.077 353.177 215.188 353.591C215.273 353.908 215.442 354.136 215.697 354.275C215.951 354.415 216.237 354.442 216.554 354.357C217.152 354.197 217.653 353.69 218.057 352.836C218.46 351.983 218.727 351.024 218.858 349.961C218.988 348.897 219.047 347.867 219.034 346.87C219.02 345.864 218.939 345.089 218.793 344.543Z" fill="#0D0D0D"/>
<path d="M237.732 345.837C237.07 348.506 235.946 350.053 234.361 350.477C233.155 350.801 232.418 350.46 232.149 349.457C231.939 348.673 231.878 347.656 231.968 346.405L231.908 346.393C231.866 346.518 231.768 346.784 231.613 347.194C231.459 347.603 231.347 347.907 231.277 348.105C231.205 348.294 231.084 348.581 230.913 348.967C230.752 349.35 230.605 349.648 230.474 349.863C230.349 350.066 230.182 350.323 229.973 350.634C229.77 350.934 229.57 351.171 229.371 351.347C229.173 351.523 228.941 351.694 228.674 351.86C228.407 352.026 228.128 352.148 227.837 352.225C227.107 352.421 226.533 352.391 226.115 352.135C225.697 351.879 225.393 351.394 225.201 350.681C225.041 350.082 224.962 349.363 224.963 348.523C224.964 347.683 225.002 346.908 225.076 346.2C225.157 345.48 225.201 344.708 225.207 343.886C225.21 343.054 225.135 342.353 224.982 341.78C224.959 341.692 224.929 341.615 224.892 341.55C224.856 341.484 224.804 341.432 224.737 341.393C224.679 341.352 224.623 341.32 224.569 341.296C224.522 341.262 224.452 341.248 224.36 341.254C224.273 341.248 224.201 341.244 224.144 341.241C224.095 341.235 224.017 341.242 223.909 341.261C223.81 341.278 223.738 341.293 223.694 341.305C223.656 341.305 223.58 341.321 223.466 341.352C223.349 341.373 223.282 341.387 223.264 341.391L223.07 340.665C223.758 340.452 224.704 340.072 225.906 339.523C227.115 338.963 227.986 338.588 228.52 338.398L228.204 347.414C228.205 347.451 228.2 347.575 228.191 347.785C228.181 347.996 228.177 348.138 228.178 348.213C228.177 348.28 228.174 348.394 228.17 348.555C228.175 348.714 228.185 348.858 228.201 348.986C228.223 349.103 228.249 349.218 228.28 349.333C228.395 349.764 228.664 349.923 229.087 349.81C229.536 349.69 229.973 349.172 230.397 348.256C230.828 347.329 231.129 346.498 231.301 345.763C231.497 344.946 231.649 344.052 231.756 343.079C231.87 342.096 231.941 341.251 231.969 340.545C232.006 339.837 232.031 338.929 232.046 337.821L235.228 336.968C235.226 337.101 235.192 338.134 235.125 340.068C235.058 342.001 235.017 343.682 235.004 345.111C234.997 346.528 235.039 347.408 235.131 347.752C235.223 348.095 235.406 348.23 235.679 348.157C236.11 348.041 236.575 347.204 237.072 345.646L237.732 345.837Z" fill="#0D0D0D"/>
<path d="M252.311 341.846C251.783 343.327 251.396 344.295 251.149 344.748C250.68 345.638 250.064 346.208 249.301 346.46C249.233 346.488 249.159 346.512 249.08 346.533C248.561 346.673 248.057 346.676 247.568 346.542C247.088 346.407 246.785 346.101 246.657 345.626C246.593 345.388 246.557 344.671 246.548 343.475L246.497 341.224L245.903 341.383C245.57 341.482 245.283 341.8 245.04 342.337C244.803 342.862 244.625 343.552 244.504 344.405C244.419 344.966 244.296 345.475 244.135 345.933C243.975 346.392 243.779 346.77 243.547 347.068C243.316 347.366 243.096 347.618 242.887 347.825C242.678 348.032 242.427 348.203 242.133 348.338C241.848 348.471 241.623 348.565 241.458 348.618C241.304 348.678 241.108 348.74 240.87 348.804L240.818 348.818C239.532 349.163 238.518 348.774 237.774 347.652L238.304 347.255C238.937 347.822 239.491 348.041 239.967 347.914C240.187 347.855 240.352 347.697 240.463 347.441C240.582 347.183 240.657 346.898 240.687 346.588C240.717 346.278 240.782 345.902 240.881 345.461C240.979 345.019 241.116 344.633 241.292 344.303C241.62 343.696 241.939 343.266 242.249 343.014C242.565 342.75 243.124 342.406 243.926 341.984C244.091 341.893 244.214 341.826 244.298 341.785C244.255 341.627 244.238 341.528 244.246 341.488C243.85 341.594 243.395 341.64 242.882 341.627C242.378 341.611 241.867 341.535 241.35 341.4C240.83 341.257 240.361 341.005 239.944 340.645C239.527 340.285 239.248 339.845 239.109 339.326C238.956 338.753 239.011 338.201 239.274 337.668C239.534 337.126 239.93 336.666 240.461 336.288C240.998 335.899 241.557 335.57 242.136 335.302C242.713 335.024 243.296 334.807 243.886 334.649L250 333.01L249.942 334.852L249.748 342.476C249.747 343.316 249.764 343.802 249.799 343.935C249.868 344.19 250.029 344.283 250.285 344.215C250.514 344.154 250.712 343.959 250.879 343.631C251.054 343.301 251.302 342.64 251.621 341.649L252.311 341.846ZM245.115 340.505L246.568 340.115L246.685 336.432C246.687 336.017 246.677 335.769 246.656 335.69C246.602 335.487 246.441 335.379 246.173 335.366C245.912 335.342 245.446 335.419 244.777 335.599C244.628 335.639 244.459 335.698 244.273 335.776C244.093 335.843 243.858 335.972 243.57 336.163C243.29 336.351 243.05 336.566 242.851 336.808C242.66 337.048 242.52 337.369 242.429 337.771C242.345 338.161 242.366 338.59 242.491 339.056C242.54 339.241 242.606 339.417 242.689 339.584C242.769 339.741 242.9 339.933 243.083 340.157C243.272 340.371 243.542 340.516 243.893 340.591C244.241 340.659 244.649 340.63 245.115 340.505Z" fill="#0D0D0D"/>
<path d="M272.821 336.379C272.665 336.958 272.513 337.447 272.365 337.846C272.226 338.241 272.029 338.686 271.774 339.179C271.526 339.66 271.208 340.062 270.822 340.382C270.445 340.7 270.01 340.925 269.517 341.057C268.258 341.395 267.472 340.978 267.158 339.807C266.974 339.12 266.92 338.125 266.995 336.822C267.071 335.518 267.164 334.281 267.274 333.109C267.383 331.929 267.387 331.154 267.288 330.784C267.236 330.59 267.135 330.457 266.983 330.385C266.838 330.301 266.669 330.285 266.475 330.337C266.22 330.405 265.968 330.595 265.722 330.907C265.475 331.218 265.257 331.602 265.068 332.059C264.888 332.513 264.739 332.911 264.624 333.253C264.514 333.585 264.413 333.928 264.319 334.283C264.205 334.701 264.105 335.157 264.021 335.651C263.943 336.134 263.882 336.561 263.84 336.931C263.795 337.292 263.752 337.766 263.711 338.353C263.679 338.937 263.658 339.367 263.647 339.644C263.636 339.92 263.619 340.402 263.595 341.087C263.577 341.762 263.567 342.199 263.564 342.398L260.315 343.268C260.319 343.248 260.368 342.287 260.462 340.384C260.565 338.479 260.637 336.775 260.678 335.273C260.728 333.769 260.715 332.876 260.64 332.594C260.595 332.427 260.511 332.289 260.387 332.18C260.264 332.072 260.118 332.04 259.951 332.085C259.784 332.13 259.515 332.376 259.144 332.825C258.688 333.447 258.308 334.247 258.004 335.225C257.7 336.203 257.485 337.251 257.361 338.37C257.236 339.489 257.153 340.501 257.113 341.409C257.071 342.307 257.055 343.217 257.066 344.139L253.791 345.016C253.788 344.828 253.808 343.794 253.852 341.914C253.902 340.023 253.925 338.314 253.921 336.786C253.927 335.256 253.883 334.319 253.791 333.976C253.664 333.501 253.222 333.364 252.464 333.567L252.147 333.652L251.953 332.926C254.293 332.082 256.029 331.357 257.16 330.752L256.883 336.219L256.977 336.251C257.485 334.661 257.901 333.521 258.226 332.83C259.086 331.005 260.128 329.928 261.352 329.601C261.898 329.454 262.373 329.502 262.777 329.742C263.19 329.981 263.471 330.377 263.62 330.932C263.806 331.628 263.831 332.55 263.696 333.7L263.736 333.746C263.877 333.284 263.993 332.908 264.086 332.619C264.187 332.328 264.33 331.945 264.514 331.471C264.696 330.988 264.885 330.584 265.081 330.258C265.276 329.931 265.503 329.597 265.76 329.254C266.024 328.901 266.324 328.613 266.661 328.39C266.995 328.159 267.352 327.993 267.73 327.891C268.391 327.715 268.962 327.769 269.444 328.055C269.933 328.33 270.266 328.797 270.443 329.458C270.622 330.127 270.662 331.083 270.561 332.328C270.467 333.561 270.36 334.764 270.24 335.938C270.127 337.101 270.139 337.937 270.276 338.448C270.309 338.571 270.38 338.661 270.489 338.716C270.596 338.763 270.711 338.77 270.835 338.737C270.923 338.713 271.013 338.647 271.107 338.537C271.206 338.416 271.294 338.284 271.368 338.141C271.443 337.998 271.528 337.82 271.621 337.606C271.713 337.383 271.783 337.204 271.831 337.069C271.886 336.922 271.949 336.749 272.018 336.551C272.086 336.345 272.124 336.226 272.135 336.195L272.821 336.379Z" fill="#0D0D0D"/>
<path d="M286.854 332.675C286.192 335.344 285.068 336.89 283.483 337.315C282.277 337.638 281.54 337.298 281.271 336.294C281.061 335.511 281.001 334.494 281.09 333.243L281.03 333.231C280.988 333.355 280.89 333.622 280.735 334.032C280.581 334.441 280.469 334.745 280.399 334.943C280.327 335.132 280.206 335.419 280.035 335.804C279.874 336.187 279.727 336.486 279.596 336.701C279.471 336.904 279.304 337.161 279.095 337.472C278.892 337.771 278.692 338.009 278.494 338.185C278.295 338.361 278.063 338.532 277.796 338.698C277.529 338.863 277.25 338.985 276.96 339.063C276.229 339.259 275.655 339.229 275.237 338.973C274.819 338.717 274.515 338.232 274.324 337.519C274.163 336.92 274.084 336.201 274.085 335.361C274.086 334.52 274.124 333.746 274.199 333.037C274.279 332.317 274.323 331.546 274.329 330.724C274.332 329.892 274.258 329.19 274.104 328.618C274.081 328.53 274.051 328.453 274.014 328.387C273.978 328.322 273.926 328.27 273.859 328.231C273.801 328.19 273.745 328.158 273.692 328.134C273.645 328.1 273.575 328.085 273.482 328.091C273.396 328.086 273.324 328.082 273.266 328.078C273.217 328.073 273.139 328.079 273.031 328.099C272.932 328.116 272.86 328.131 272.816 328.142C272.779 328.143 272.703 328.159 272.588 328.189C272.471 328.211 272.404 328.224 272.386 328.229L272.192 327.503C272.88 327.29 273.826 326.909 275.028 326.361C276.237 325.801 277.108 325.426 277.642 325.236L277.326 334.252C277.327 334.289 277.322 334.413 277.313 334.623C277.303 334.833 277.299 334.976 277.3 335.051C277.299 335.118 277.296 335.231 277.293 335.393C277.297 335.552 277.308 335.696 277.323 335.824C277.345 335.94 277.371 336.056 277.402 336.17C277.517 336.602 277.786 336.761 278.209 336.648C278.658 336.527 279.095 336.009 279.519 335.093C279.95 334.166 280.252 333.336 280.423 332.601C280.619 331.784 280.771 330.889 280.878 329.917C280.992 328.933 281.063 328.089 281.091 327.383C281.128 326.675 281.153 325.767 281.168 324.659L284.351 323.806C284.348 323.939 284.314 324.972 284.247 326.905C284.18 328.839 284.14 330.52 284.126 331.948C284.119 333.366 284.161 334.246 284.253 334.589C284.345 334.933 284.528 335.068 284.801 334.995C285.232 334.879 285.697 334.042 286.195 332.484L286.854 332.675Z" fill="#0D0D0D"/>
<path d="M300.702 328.965C300.039 331.633 298.915 333.18 297.331 333.605C296.125 333.928 295.387 333.588 295.118 332.584C294.908 331.8 294.848 330.783 294.937 329.533L294.878 329.52C294.835 329.645 294.737 329.912 294.583 330.321C294.428 330.731 294.316 331.034 294.246 331.232C294.174 331.421 294.053 331.709 293.883 332.094C293.721 332.477 293.575 332.776 293.444 332.99C293.319 333.194 293.152 333.451 292.942 333.761C292.74 334.061 292.539 334.299 292.341 334.475C292.143 334.65 291.91 334.821 291.643 334.987C291.376 335.153 291.097 335.275 290.807 335.353C290.076 335.549 289.502 335.518 289.084 335.262C288.666 335.006 288.362 334.522 288.171 333.809C288.011 333.21 287.931 332.49 287.932 331.65C287.934 330.81 287.972 330.036 288.046 329.327C288.127 328.607 288.17 327.836 288.176 327.013C288.18 326.182 288.105 325.48 287.952 324.908C287.928 324.82 287.898 324.743 287.861 324.677C287.825 324.611 287.773 324.559 287.706 324.521C287.648 324.479 287.592 324.447 287.539 324.424C287.492 324.389 287.422 324.375 287.329 324.381C287.243 324.376 287.171 324.371 287.113 324.368C287.065 324.362 286.986 324.369 286.878 324.389C286.779 324.406 286.707 324.42 286.663 324.432C286.626 324.433 286.55 324.448 286.435 324.479C286.319 324.501 286.251 324.514 286.234 324.519L286.039 323.792C286.728 323.58 287.673 323.199 288.875 322.65C290.084 322.091 290.956 321.715 291.49 321.525L291.174 330.541C291.174 330.579 291.17 330.703 291.16 330.913C291.15 331.123 291.146 331.266 291.147 331.341C291.146 331.407 291.144 331.521 291.14 331.683C291.145 331.842 291.155 331.985 291.17 332.113C291.192 332.23 291.218 332.346 291.249 332.46C291.365 332.891 291.634 333.051 292.056 332.937C292.505 332.817 292.942 332.299 293.367 331.383C293.798 330.456 294.099 329.625 294.27 328.891C294.466 328.074 294.618 327.179 294.726 326.207C294.839 325.223 294.91 324.378 294.938 323.673C294.975 322.964 295.001 322.056 295.015 320.949L298.198 320.096C298.196 320.228 298.161 321.262 298.094 323.195C298.027 325.128 297.987 326.809 297.973 328.238C297.966 329.655 298.009 330.536 298.101 330.879C298.193 331.222 298.375 331.357 298.648 331.284C299.079 331.169 299.544 330.332 300.042 328.774L300.702 328.965ZM293.794 317.921C294.084 317.843 294.358 317.723 294.617 317.559C294.884 317.393 295.148 317.167 295.411 316.879C295.671 316.583 295.891 316.189 296.071 315.698C296.259 315.204 296.386 314.637 296.45 313.996L297.089 314.108C297.003 314.773 296.88 315.372 296.721 315.905C296.569 316.428 296.347 316.94 296.057 317.442C295.765 317.936 295.37 318.362 294.872 318.722C294.38 319.071 293.795 319.336 293.117 319.518C292.105 319.789 291.215 319.726 290.448 319.327C289.687 318.918 289.215 318.37 289.031 317.683C288.92 317.269 288.932 316.874 289.067 316.499C289.209 316.111 289.544 315.847 290.072 315.706C290.371 315.625 290.645 315.609 290.893 315.655C291.139 315.693 291.332 315.778 291.471 315.911C291.617 316.032 291.73 316.153 291.809 316.273C291.886 316.385 291.938 316.489 291.964 316.586C292.117 317.158 292.355 317.552 292.677 317.768C293.008 317.981 293.38 318.032 293.794 317.921Z" fill="#0D0D0D"/>
</g>
<defs>
<linearGradient id="paint0_linear_101_106" x1="195.224" y1="-21.6406" x2="120.724" y2="558.959" gradientUnits="userSpaceOnUse">
<stop stop-color="#CC121B"/>
<stop offset="1" stop-color="#850007"/>
</linearGradient>
<linearGradient id="paint1_linear_101_106" x1="257.1" y1="209.285" x2="283.364" y2="406.131" gradientUnits="userSpaceOnUse">
<stop stop-color="#CC121B"/>
<stop offset="1" stop-color="#850007"/>
</linearGradient>
<clipPath id="clip0_101_106">
<rect width="390" height="680" fill="white"/>
</clipPath>
</defs>
</svg>
