<svg width="390" height="600" viewBox="0 0 390 600" fill="none" xmlns="http://www.w3.org/2000/svg">
<path d="M339 0H331C331 5.52285 326.523 10 321 10C315.477 10 311 5.52285 311 1.90735e-06H303C303 5.52285 298.523 10 293 10C287.477 10 283 5.52285 283 2.86102e-06H275C275 5.52285 270.523 10 265 10C259.477 10 255 5.52285 255 3.8147e-06L247 4.76837e-06C247 5.52285 242.523 10 237 10C231.477 10 227 5.52285 227 5.72205e-06H219C219 5.52285 214.523 10 209 10C203.477 10 199 5.52285 199 6.67572e-06H191C191 5.52285 186.523 10 181 10C175.477 10 171 5.52286 171 7.62939e-06L163 8.58307e-06C163 5.52286 158.523 10 153 10C147.477 10 143 5.52286 143 8.58307e-06L135 9.53674e-06C135 5.52286 130.523 10 125 10C119.477 10 115 5.52286 115 1.04904e-05H107C107 5.52286 102.523 10 97 10C91.4771 10 87 5.52286 87 1.14441e-05H79C79 5.52286 74.5228 10 69 10C63.4772 10 59 5.52286 59 1.23978e-05L51 1.33514e-05C51 5.52286 46.5228 10 41 10C35.4772 10 31 5.52286 31 1.43051e-05C31 1.90735e-05 31 9.53674e-06 31 1.43051e-05L20 0V10C25.5228 10 30 14.4772 30 20C30 25.5229 25.5228 30 20 30V38C25.5228 38 30 42.4772 30 48C30 53.5229 25.5228 58 20 58V66C25.5228 66 30 70.4772 30 76C30 81.5229 25.5228 86 20 86V94C25.5228 94 30 98.4772 30 104C30 109.523 25.5228 114 20 114V122C25.5228 122 30 126.477 30 132C30 137.523 25.5228 142 20 142V150C25.5228 150 30 154.477 30 160C30 165.523 25.5228 170 20 170V178C25.5228 178 30 182.477 30 188C30 193.523 25.5228 198 20 198V206C25.5228 206 30 210.477 30 216C30 221.523 25.5228 226 20 226V234C25.5228 234 30 238.477 30 244C30 249.523 25.5228 254 20 254V262C25.5228 262 30 266.477 30 272C30 277.523 25.5228 282 20 282V290C25.5228 290 30 294.477 30 300C30 305.523 25.5228 310 20 310V318C25.5228 318 30 322.477 30 328C30 333.523 25.5228 338 20 338V346C25.5228 346 30 350.477 30 356C30 361.523 25.5228 366 20 366V374C25.5228 374 30 378.477 30 384C30 389.523 25.5228 394 20 394V402C25.5228 402 30 406.477 30 412C30 417.523 25.5228 422 20 422V430C25.5228 430 30 434.477 30 440C30 445.523 25.5228 450 20 450V458C25.5228 458 30 462.477 30 468C30 473.523 25.5228 478 20 478V486C25.5228 486 30 490.477 30 496C30 501.523 25.5228 506 20 506V514C25.5228 514 30 518.477 30 524C30 529.523 25.5228 534 20 534V542C25.5228 542 30 546.477 30 552C30 557.523 25.5228 562 20 562V570C25.5228 570 30 574.477 30 580C30 585.523 25.5228 590 20 590V600H31C31 594.477 35.4772 590 41 590C46.5228 590 51 594.477 51 600H59C59 594.477 63.4772 590 69 590C74.5228 590 79 594.477 79 600H87C87 594.477 91.4771 590 97 590C102.523 590 107 594.477 107 600H115C115 594.477 119.477 590 125 590C130.523 590 135 594.477 135 600H143C143 594.477 147.477 590 153 590C158.523 590 163 594.477 163 600H171C171 594.477 175.477 590 181 590C186.523 590 191 594.477 191 600H199C199 594.477 203.477 590 209 590C214.523 590 219 594.477 219 600H227C227 594.477 231.477 590 237 590C242.523 590 247 594.477 247 600H255C255 594.477 259.477 590 265 590C270.523 590 275 594.477 275 600H283C283 594.477 287.477 590 293 590C298.523 590 303 594.477 303 600H311C311 594.477 315.477 590 321 590C326.523 590 331 594.477 331 600H339C339 594.477 343.477 590 349 590C354.523 590 359 594.477 359 600H370V590C364.477 590 360 585.523 360 580C360 574.477 364.477 570 370 570V562C364.477 562 360 557.523 360 552C360 546.477 364.477 542 370 542V534C364.477 534 360 529.523 360 524C360 518.477 364.477 514 370 514V506C364.477 506 360 501.523 360 496C360 490.477 364.477 486 370 486V478C364.477 478 360 473.523 360 468C360 462.477 364.477 458 370 458V450C364.477 450 360 445.523 360 440C360 434.477 364.477 430 370 430V422C364.477 422 360 417.523 360 412C360 406.477 364.477 402 370 402V394C364.477 394 360 389.523 360 384C360 378.477 364.477 374 370 374V366C364.477 366 360 361.523 360 356C360 350.477 364.477 346 370 346V338C364.477 338 360 333.523 360 328C360 322.477 364.477 318 370 318V310C364.477 310 360 305.523 360 300C360 294.477 364.477 290 370 290V282C364.477 282 360 277.523 360 272C360 266.477 364.477 262 370 262V254C364.477 254 360 249.523 360 244C360 238.477 364.477 234 370 234V226C364.477 226 360 221.523 360 216C360 210.477 364.477 206 370 206V198C364.477 198 360 193.523 360 188C360 182.477 364.477 178 370 178V170C364.477 170 360 165.523 360 160C360 154.477 364.477 150 370 150V142C364.477 142 360 137.523 360 132C360 126.477 364.477 122 370 122V114C364.477 114 360 109.523 360 104C360 98.4772 364.477 94 370 94V86C364.477 86 360 81.5229 360 76C360 70.4772 364.477 66 370 66V58C364.477 58 360 53.5229 360 48C360 42.4772 364.477 38 370 38V30C364.477 30 360 25.5229 360 20C360 14.4772 364.477 10 370 10V0H359C359 5.52285 354.523 10 349 10C343.477 10 339 5.52285 339 0Z" fill="white"/>
</svg>
