<svg width="390" height="309" viewBox="0 0 390 309" fill="none" xmlns="http://www.w3.org/2000/svg">
<path fill-rule="evenodd" clip-rule="evenodd" d="M190.775 82.5865C189.967 82.8243 188.477 83.5726 186.939 84.3449C184.925 85.3566 182.829 86.4095 182.076 86.4095C178.873 86.4095 172.984 84.5859 172.185 81.3927C171.683 79.3847 170.408 77.6941 169.16 76.0391C168.8 75.5616 168.442 75.087 168.106 74.6087C167.108 73.1908 166.292 71.5899 165.474 69.9844C164.778 68.6198 164.08 67.2518 163.269 65.9903C162.58 64.9192 161.971 63.8169 161.364 62.717C160.337 60.855 159.313 58.9996 157.907 57.3137C156.254 55.3317 154.345 53.5848 152.439 51.8408C151.35 50.8446 150.262 49.8494 149.224 48.8118C148.115 47.7037 147.114 46.5038 146.114 45.3059C144.475 43.3426 142.841 41.3845 140.745 39.844C137.54 37.4894 132.748 36.4175 128.792 35.5325C128.488 35.4644 128.188 35.3974 127.895 35.331C123.654 34.3717 118.808 34.2537 114.462 34.2537C111.522 34.2537 108.609 33.9853 105.695 33.7168C103.581 33.522 101.465 33.327 99.3392 33.2347C95.0869 33.0499 91.2837 31.3164 87.4435 29.566C85.0609 28.48 82.6641 27.3876 80.137 26.6544L79.4365 26.451C74.3197 24.9648 68.8589 23.3787 63.6156 22.7238C62.1886 22.5455 60.7305 22.297 59.256 22.0457C54.0943 21.1659 48.7321 20.2519 43.8016 22.1997C41.723 23.0208 37.9615 23.6472 33.9578 24.314C28.3558 25.2469 22.2794 26.2589 19.675 27.9938C18.3772 28.8584 17.629 30.1555 16.8804 31.4533C16.5294 32.0617 16.1784 32.6704 15.7705 33.2347C15.2167 34.0009 14.6222 34.7523 14.0263 35.5055C12.966 36.8456 11.9008 38.192 11.0501 39.6402C7.57521 45.5559 8.27074 53.8175 8.95214 60.3709C9.17821 62.5452 9.55246 64.7337 9.92807 66.9301C10.7498 71.7352 11.5779 76.5781 10.8753 81.3927C9.25207 92.5147 8.41514 102.925 11.1666 114.119C13.2066 122.418 29.0911 131.671 37.362 134.064C39.3781 134.647 41.4326 134.928 43.4834 135.209C46.5897 135.634 49.6875 136.058 52.6305 137.529C54.0336 138.23 55.4845 138.735 56.9346 139.24C58.8507 139.908 60.7654 140.575 62.5666 141.692C65.9484 143.79 69.7076 145.48 73.5809 146.409C77.5391 147.358 82.2188 147.981 86.2852 147.981C89.0803 147.981 91.7738 147.423 94.4743 146.863C96.0283 146.541 97.5847 146.218 99.1644 146.001C106.98 144.928 113.815 141.286 120.494 137.267C129.488 131.854 138.697 126.518 148.058 121.777C154.517 118.506 161.382 116.339 168.514 115.226C171.345 114.784 178.211 113.959 179.79 116.798C181.569 119.998 176.199 123.138 173.758 124.135C172.954 124.464 172.138 124.787 171.315 125.113L171.31 125.115L171.308 125.116C167.251 126.722 163.06 128.382 159.597 130.977C154.45 134.835 149.307 138.763 146.077 144.429C143.416 149.096 140.647 153.694 137.879 158.291L137.878 158.293C135.618 162.045 133.358 165.797 131.158 169.585C126.469 177.66 119.353 181.147 110.47 183.095C107.661 183.712 104.714 184.086 101.817 184.455C100.966 184.563 100.119 184.671 99.2809 184.784C96.6754 185.136 82.6175 175.606 80.0825 176.253C78.0873 176.762 76.0927 177.271 74.0651 177.635C70.803 178.222 67.464 178.432 64.1276 178.642C58.2339 179.012 52.3481 179.382 46.9082 181.828C37.5581 186.033 29.2025 191.359 22.4028 199.211C20.9773 200.857 19.5244 202.475 18.0731 204.092L18.0717 204.093C15.3741 207.098 12.6795 210.1 10.1647 213.274C6.82189 217.493 4.609 222.676 2.44662 227.741C1.68748 229.519 0.934562 231.283 0.141165 232.985C-6.57322 247.39 -12.067 263.101 -14.1949 278.93C-14.4508 280.834 -15.5926 293.113 -11.2519 286.297C-6.82542 279.346 -2.44693 272.506 4.24967 267.488L4.83934 267.046C10.5868 262.74 16.359 258.416 21.383 253.396C21.4253 253.353 21.4965 253.275 21.587 253.176C22.1449 252.565 23.4369 251.148 23.2187 252.347C22.8563 254.339 21.9683 256.374 21.095 258.375C20.5487 259.627 20.0081 260.865 19.6056 262.072C15.9055 273.164 19.1375 284.961 22.7234 295.614C23.963 299.297 25.7062 303.136 28.2014 306.154C29.0046 307.126 32.0589 310.608 31.1152 307.668C26.276 292.593 25.644 274.631 32.6887 260.151C36.0077 253.328 39.9841 247.587 44.5188 241.545C46.0799 239.465 47.8054 237.582 49.531 235.699C51.6288 233.409 53.7273 231.119 55.5331 228.472C57.2743 225.92 59.6549 223.696 62.0253 221.482C63.7133 219.905 65.396 218.333 66.8388 216.651C69.3708 213.699 73.7933 210.556 77.2703 208.819C82.2332 206.339 87.8014 205.717 93.3392 205.099C96.461 204.75 111.094 214.579 114.083 213.9C116.272 213.403 118.392 212.58 120.509 211.757C122.509 210.981 124.506 210.205 126.554 209.707C128.078 209.337 129.594 208.732 131.117 208.125C133.412 207.209 135.723 206.287 138.093 206.155C140.374 206.029 142.615 204.683 144.758 203.397C145.806 202.767 146.831 202.152 147.825 201.7C152.018 199.796 156.215 194.317 158.519 190.403C161.22 185.815 162.927 181.444 163.793 176.253C164.666 171.019 166.335 165.845 167.979 160.746C168.427 159.358 168.873 157.976 169.3 156.6C171.902 148.224 175.166 140.19 180.285 133.19C182.965 129.526 186.373 128.435 190.063 127.255C191.584 126.768 193.153 126.266 194.738 125.562C196.176 124.923 198.479 124.945 200.584 124.966C201.721 124.977 202.801 124.987 203.654 124.892C206.132 124.617 208.458 124.397 210.997 124.397C219.229 124.397 220.107 133.783 220.744 140.588C220.816 141.364 220.886 142.107 220.962 142.799C223.057 161.632 225.676 180.634 240.66 194.276C250.748 203.46 262.084 207.707 274.927 211.513C278.33 212.521 281.783 213.001 285.241 213.482C288.063 213.875 290.888 214.267 293.692 214.948C297.929 215.977 302.345 216.611 306.687 217.045C310.597 217.435 314.845 217.334 319.184 217.231C329.986 216.973 341.348 216.703 349.433 223.974C354.075 228.149 356.921 232.65 358.379 238.649C359.978 245.228 358.35 251.543 356.724 257.849C356.392 259.135 356.06 260.421 355.756 261.709C354.863 265.492 352.369 269.967 350.22 273.239C350.021 273.541 349.594 274.05 349.095 274.644L349.093 274.647C347.93 276.031 346.374 277.884 346.374 278.713C346.374 279.096 350.39 277.106 350.774 276.907C351.615 276.471 352.489 276.077 353.361 275.683C355.117 274.89 356.877 274.095 358.408 272.948C364.073 268.702 368.924 264.602 373.064 258.855L373.144 258.744L373.246 258.602C374.545 256.781 381.488 247.046 381.981 247.908C383.923 251.304 384.672 257.724 384.603 261.476C384.572 263.219 384.181 264.882 383.791 266.545C383.547 267.585 383.303 268.626 383.146 269.687C382.977 270.837 382.949 271.983 382.921 273.129C382.89 274.425 382.859 275.721 382.622 277.024C382.572 277.299 382.516 277.561 382.465 277.799C382.245 278.822 382.125 279.384 383.03 278.48C383.954 277.557 385.033 276.796 386.116 276.034C387.171 275.291 388.229 274.546 389.149 273.646C395.309 267.622 400.33 261.178 404.942 253.847C411.163 243.957 415.44 230.917 408.234 220.568C407.956 220.168 407.677 219.766 407.398 219.364C402.664 212.544 397.737 205.445 390.606 200.885C381.048 194.773 371.811 189.84 361.001 186.24C349.601 182.443 338.737 184.221 327.363 186.083L327.357 186.084C326.203 186.273 325.044 186.463 323.879 186.647C323.526 186.703 323.168 186.761 322.806 186.819C317.415 187.685 311.171 188.687 305.93 187.259C302.166 186.233 300.983 182.618 299.886 179.269L299.885 179.264L299.884 179.262L299.882 179.257C299.723 178.771 299.566 178.291 299.403 177.825C298.447 175.097 297.578 172.35 296.711 169.613C293.982 160.994 291.281 152.46 285.999 144.837C279.392 135.3 269.969 130.87 258.726 128.998C258.336 128.933 257.573 128.857 256.562 128.758C250.738 128.184 236.688 126.8 238.387 121.893C240.4 116.082 250.583 119.471 255.816 121.213C256.53 121.45 257.151 121.657 257.648 121.806C259.778 122.445 261.819 123.421 263.863 124.398C266.623 125.718 269.389 127.042 272.392 127.542C275.89 128.124 279.402 129.139 282.9 130.15C285.175 130.807 287.444 131.463 289.7 131.996C295.564 133.384 301.59 134.696 307.503 135.811C308.518 136.002 309.654 136.393 310.837 136.801C313.282 137.643 315.926 138.553 318.11 137.907C322.048 136.741 325.47 134.549 328.888 132.359C331.876 130.445 334.861 128.533 338.186 127.309C342.747 125.63 347.125 124.427 351.968 123.757C355.513 123.266 358.416 122.095 361.449 120.872C362.894 120.289 364.368 119.695 365.955 119.156C370.531 117.603 373.69 115.422 376.736 111.703C377.438 110.845 378.213 110.014 378.992 109.177L378.995 109.174C381.208 106.797 383.46 104.38 384.195 101.221C384.532 99.7753 384.994 98.5172 385.437 97.3128C386.335 94.8734 387.151 92.6544 386.672 89.5452C386.25 86.8065 384.585 84.4641 382.999 82.2319L382.997 82.2298C382.742 81.8706 382.489 81.5144 382.243 81.1598C377.209 73.8941 378.059 66.1478 380.145 57.8087C381.27 53.3113 381.375 47.813 380.524 43.2797C380.334 42.2673 380.162 41.2066 379.987 40.1265L379.987 40.1245L379.986 40.1205C379.467 36.9166 378.92 33.5371 377.785 30.7016C374.049 21.3679 366.746 15.2237 358.903 9.50505C357.373 8.38922 355.72 7.42791 354.069 6.46752C352.102 5.32338 350.137 4.18054 348.384 2.77923C344.333 -0.458997 339.156 -0.122507 334.323 0.191683L333.932 0.217016C328.101 0.592924 321.703 2.42633 316.682 5.39968C315.213 6.26964 313.73 7.32105 312.231 8.38418C309.745 10.147 307.214 11.9426 304.619 12.999C300.844 14.5356 297.018 15.9636 293.2 17.3887C278.69 22.8043 264.275 28.1844 253.073 39.3782C251.431 41.0193 250.452 43.1868 249.484 45.3307C249.004 46.393 248.528 47.4494 247.974 48.4333C246.15 51.6738 244.447 54.5302 241.971 57.3137C240.498 58.9701 238.897 60.3516 237.339 61.6968C234.047 64.539 230.942 67.2193 229.617 71.9882C229.548 72.2355 229.479 72.4855 229.411 72.7343L229.41 72.738C228.508 76.0175 227.581 79.391 225.158 81.9459C223.061 84.1579 222.439 83.7728 220.856 82.793C220.446 82.539 219.971 82.245 219.389 81.9459C214.731 79.5523 208.977 78.6096 203.771 79.4419C199.368 80.1458 195.056 81.3271 190.775 82.5865ZM248.76 88.235C248.313 87.4123 258.932 73.0917 266.593 69.3678C271.106 67.1741 278.676 67.0116 283.639 67.5626C284.389 67.6458 285.131 67.7408 285.869 67.8353C288.436 68.1638 290.957 68.4865 293.604 68.2905C296.909 68.0459 301.038 65.4184 303.657 63.5154C308.518 59.9831 312.934 55.7656 317.295 51.6005C318.15 50.7835 319.004 49.9686 319.858 49.1612C328.412 41.0757 338.717 32.6581 351.007 38.1844C351.65 38.4737 352.288 38.7506 352.916 39.0236C357.827 41.1566 362.188 43.0506 364.41 48.7245C366.547 54.1811 364.221 60.6821 360.069 64.5345C358.89 65.6278 357.538 66.3594 356.203 67.081C353.936 68.3071 351.723 69.504 350.511 72.3959C349.02 75.955 348.792 79.7743 348.562 83.6259C348.397 86.3868 348.23 89.1643 347.598 91.8745C347.435 92.5724 347.287 93.2449 347.144 93.8926C345.929 99.4211 345.112 103.136 338.71 105.268C331.443 107.688 325.844 105.8 319.974 101.337C315.294 97.7786 309.867 95.339 304.496 92.9243C302.684 92.1099 300.879 91.2984 299.111 90.4478C292.674 87.3507 285.908 87.235 278.977 87.6818C275.388 87.9132 271.835 88.4724 268.283 89.0503C267.094 89.2437 265.894 89.5319 264.688 89.8216C262.545 90.3363 260.383 90.8555 258.23 90.8555C256.517 90.8555 249.316 89.418 248.76 88.235ZM148.158 83.5934C151.818 86.0013 155.766 88.5993 158.548 91.3798C161 93.8299 146.594 96.3209 140.308 96.0966C135.467 95.9238 130.435 93.8334 125.856 91.9311C125.064 91.6022 124.286 91.2789 123.524 90.9722C116.693 88.2198 111.262 89.329 104.497 91.6418C96.6721 94.3167 90.5606 98.1347 84.0709 103.201C78.1084 107.856 71.544 112.621 64.1403 114.702C57.3149 116.62 48.7959 114.995 45.5501 107.859C42.218 100.535 43.537 91.283 44.6614 83.3965C44.7254 82.9473 44.7888 82.5024 44.8507 82.0626C45.0156 80.8909 45.245 79.6562 45.481 78.386C46.3807 73.5433 47.3761 68.1852 45.2587 63.8359C43.7106 60.6561 43.0335 57.846 43.1607 54.2859C43.3226 49.7574 47.2007 47.599 51.436 48.2879C54.6232 48.8064 56.2794 51.2708 57.9873 53.8122C58.1913 54.1156 58.3959 54.4201 58.604 54.7226C63.1046 61.2639 72.3033 64.2818 79.9041 65.1753C83.6521 65.6159 87.0299 65.7601 90.7727 65.0588C91.6337 64.8975 92.4869 64.6948 93.3391 64.4924C95.2135 64.0471 97.0829 63.603 99.0189 63.603C108.848 63.603 117.147 64.9214 126.292 68.873C130.92 70.8728 135.044 74.0328 139.111 77.1491C140.733 78.3924 142.347 79.6287 143.979 80.7815C145.263 81.6877 146.687 82.6252 148.158 83.5934Z" fill="#CC121B"/>
</svg>
