<svg width="390" height="299" viewBox="0 0 390 299" fill="none" xmlns="http://www.w3.org/2000/svg">
<path d="M15.2526 194.999C15.2879 193.895 16.2114 193.029 17.3154 193.064L86.2803 195.264C87.3843 195.299 88.2507 196.223 88.2155 197.327L85.1153 294.496C85.0587 296.27 82.8906 297.097 81.6672 295.81L50.9889 263.559C50.235 262.766 48.9843 262.726 48.1815 263.469L15.5097 293.7C14.2067 294.905 12.0958 293.942 12.1524 292.168L15.2526 194.999Z" fill="#889F5B"/>
<path d="M133.18 187.923C132.909 186.852 133.558 185.764 134.629 185.494L201.525 168.586C202.596 168.315 203.684 168.964 203.954 170.035L227.777 264.289C228.212 266.01 226.356 267.403 224.825 266.504L186.441 243.966C185.498 243.412 184.285 243.718 183.718 244.654L160.652 282.724C159.732 284.242 157.437 283.898 157.002 282.177L133.18 187.923Z" fill="#889F5B"/>
<path d="M246.954 153.626C246.38 152.682 246.679 151.452 247.622 150.877L306.563 115.002C307.506 114.428 308.737 114.727 309.311 115.671L359.858 198.715C360.781 200.232 359.418 202.109 357.69 201.702L314.368 191.479C313.303 191.228 312.234 191.878 311.969 192.939L301.149 236.117C300.718 237.839 298.424 238.187 297.501 236.67L246.954 153.626Z" fill="#889F5B"/>
<path d="M342.611 85.9838C341.721 85.3291 341.531 84.0772 342.185 83.1875L383.078 27.6109C383.733 26.7212 384.985 26.5306 385.874 27.1853L464.18 84.8018C465.61 85.8539 465.062 88.1086 463.309 88.3878L419.351 95.3892C418.271 95.5613 417.529 96.5692 417.686 97.6516L424.081 141.702C424.336 143.459 422.346 144.652 420.916 143.6L342.611 85.9838Z" fill="#889F5B"/>
<path d="M170.379 186.391L195.418 212.313L185.917 214.714L199.605 228.884L164.846 237.667L170.16 218.695L160.659 221.096L170.379 186.391Z" fill="url(#paint0_linear_267_195)"/>
<path d="M371.625 57.4376L407.431 61.5317L401.623 69.4243L421.197 71.6624L399.948 100.537L391.99 82.5143L386.182 90.4068L371.625 57.4376Z" fill="url(#paint1_linear_267_195)"/>
<path d="M50.6764 203.189C50.7419 202.673 51.4981 202.697 51.5306 203.217L52.5461 219.492C52.5709 219.889 53.0756 220.041 53.3162 219.725L63.1822 206.741C63.4972 206.326 64.1401 206.725 63.9083 207.192L56.6502 221.794C56.4732 222.15 56.8339 222.535 57.2007 222.381L72.2366 216.07C72.7168 215.868 73.074 216.535 72.6401 216.823L59.0532 225.84C58.7218 226.06 58.8419 226.574 59.2365 226.624L75.4136 228.676C75.9302 228.742 75.906 229.498 75.3863 229.53L59.1112 230.546C58.7142 230.571 58.5615 231.075 58.8782 231.316L71.8618 241.182C72.2764 241.497 71.8774 242.14 71.4111 241.908L56.8087 234.65C56.4525 234.473 56.0679 234.834 56.2219 235.2L62.533 250.236C62.7345 250.717 62.0676 251.074 61.7796 250.64L52.7626 237.053C52.5426 236.722 52.0292 236.842 51.9792 237.236L49.9268 253.413C49.8612 253.93 49.105 253.906 49.0726 253.386L48.0571 237.111C48.0323 236.714 47.5276 236.561 47.2869 236.878L37.421 249.862C37.1059 250.276 36.4631 249.877 36.6949 249.411L43.953 234.808C44.13 234.452 43.7693 234.068 43.4025 234.222L28.3665 240.533C27.8864 240.734 27.5292 240.067 27.9631 239.779L41.55 230.762C41.8814 230.542 41.7613 230.029 41.3667 229.979L25.1896 227.926C24.673 227.861 24.6971 227.105 25.2168 227.072L41.492 226.057C41.889 226.032 42.0416 225.527 41.7249 225.287L28.7413 215.421C28.3267 215.106 28.7258 214.463 29.1921 214.695L43.7945 221.953C44.1507 222.13 44.5352 221.769 44.3813 221.402L38.0702 206.366C37.8686 205.886 38.5356 205.529 38.8236 205.963L47.8406 219.55C48.0605 219.881 48.5739 219.761 48.624 219.366L50.6764 203.189Z" fill="url(#paint2_linear_267_195)"/>
<path d="M282.619 141.813C282.391 141.345 283.038 140.952 283.349 141.369L293.101 154.438C293.339 154.757 293.845 154.609 293.873 154.212L295.031 137.946C295.068 137.427 295.824 137.409 295.885 137.927L297.796 154.121C297.843 154.516 298.355 154.641 298.578 154.311L307.713 140.803C308.005 140.372 308.669 140.735 308.463 141.213L302.021 156.194C301.864 156.559 302.245 156.923 302.603 156.749L317.268 149.619C317.737 149.391 318.13 150.038 317.713 150.349L304.644 160.101C304.325 160.339 304.473 160.845 304.87 160.873L321.135 162.031C321.655 162.068 321.672 162.824 321.155 162.885L304.961 164.796C304.566 164.843 304.441 165.355 304.771 165.578L318.278 174.713C318.71 175.005 318.347 175.669 317.868 175.463L302.888 169.021C302.523 168.864 302.159 169.245 302.332 169.603L309.463 184.268C309.691 184.737 309.044 185.13 308.733 184.713L298.981 171.644C298.743 171.325 298.237 171.473 298.208 171.87L297.051 188.135C297.014 188.655 296.258 188.672 296.197 188.155L294.285 171.961C294.239 171.566 293.726 171.441 293.504 171.771L284.368 185.278C284.077 185.71 283.413 185.347 283.619 184.868L290.061 169.888C290.218 169.523 289.836 169.159 289.479 169.333L274.813 176.463C274.345 176.691 273.952 176.044 274.369 175.733L287.438 165.981C287.757 165.743 287.609 165.237 287.212 165.208L270.946 164.051C270.427 164.014 270.409 163.258 270.927 163.197L287.121 161.285C287.516 161.239 287.641 160.726 287.311 160.504L273.803 151.368C273.372 151.077 273.735 150.413 274.213 150.619L289.194 157.061C289.559 157.218 289.923 156.836 289.749 156.479L282.619 141.813Z" fill="url(#paint3_linear_267_195)"/>
<path d="M-5 189.374C89.5088 203.175 302.221 185.021 397 2" stroke="#889F5B" stroke-width="8"/>
<path d="M575.936 84.1861C561.877 85.4927 281.017 118.823 288.76 77.3125C290.292 69.1001 301.072 63.7222 307.458 60.7111C321.17 54.2458 336.292 50.3252 351.321 48.5366C370.907 46.2059 391.645 48.0803 408.407 59.2548C438.8 79.5168 420.123 121.411 406.543 146.631C397.17 164.039 382.775 197.265 358.137 192.008C332.109 186.456 307.82 182.592 281.42 189.504C257.636 195.731 228.05 212.238 221.014 237.619C218.368 247.163 216.368 273.299 231.208 274.783C247.656 276.428 241.97 256.236 239.188 247.055C231.019 220.096 211.381 194.595 182.51 188.863C164.286 185.245 145.225 188.045 127.172 191.309C113.59 193.766 98.2253 196.201 86.6296 204.299C80.6544 208.472 58.7409 231.522 77.1347 235.463C90.0612 238.233 104.955 226.982 113.308 218.629C131.026 200.912 141.109 177.396 148.375 153.738C154.937 132.374 162.272 105.018 156.531 82.7881C151.555 63.5236 129.139 60.6156 112.726 66.3031C91.6511 73.6063 84.7483 93.9238 72 111.5C60.3949 127.5 37.8996 149.199 22.5 125C12 108.5 21.6951 46.7597 33 70.5C43 91.5 18.4172 105 -2 121.5" stroke="white" stroke-width="2" stroke-linecap="round"/>
<path d="M305.5 111.979C319.124 101.47 332.197 89.712 344.5 76.5815" stroke="#889F5B" stroke-width="8"/>
<path d="M188.7 245.292L224.825 266.504C226.356 267.403 228.212 266.01 227.777 264.289L220.254 234.524C219.975 233.421 218.832 232.772 217.742 233.098L189.139 241.651C187.466 242.152 187.193 244.407 188.7 245.292Z" fill="#889F5B"/>
<defs>
<linearGradient id="paint0_linear_267_195" x1="170.379" y1="186.391" x2="182.226" y2="233.275" gradientUnits="userSpaceOnUse">
<stop stop-color="#313921"/>
<stop offset="1" stop-color="#889F5B"/>
</linearGradient>
<linearGradient id="paint1_linear_267_195" x1="371.625" y1="57.4376" x2="410.573" y2="86.0999" gradientUnits="userSpaceOnUse">
<stop stop-color="#313921"/>
<stop offset="1" stop-color="#889F5B"/>
</linearGradient>
<linearGradient id="paint2_linear_267_195" x1="51.1159" y1="202.814" x2="49.4873" y2="253.788" gradientUnits="userSpaceOnUse">
<stop stop-color="#313921"/>
<stop offset="1" stop-color="#889F5B"/>
</linearGradient>
<linearGradient id="paint3_linear_267_195" x1="282.782" y1="141.259" x2="309.3" y2="184.823" gradientUnits="userSpaceOnUse">
<stop stop-color="#313921"/>
<stop offset="1" stop-color="#889F5B"/>
</linearGradient>
</defs>
</svg>
