<svg width="97" height="75" viewBox="0 0 97 75" fill="none" xmlns="http://www.w3.org/2000/svg">
<path d="M45.3254 19.8991C44.9024 20.0248 43.6557 20.774 43.3549 20.774C42.6294 20.774 41.2955 20.3567 41.1146 19.6259C40.9679 19.0338 40.5309 18.5624 40.1906 18.0735C39.7728 17.4732 39.4951 16.7296 39.095 16.1012C38.6747 15.4412 38.3872 14.7294 37.8806 14.1157C37.2923 13.403 36.5608 12.8232 35.9138 12.1701C35.2509 11.5009 34.7578 10.6855 33.9932 10.1179C33.2114 9.53762 32.0127 9.29777 31.0826 9.08516C30.1221 8.86562 29.0244 8.83863 28.04 8.83863C26.8909 8.83863 25.7597 8.65569 24.6146 8.60543C23.0538 8.53692 21.7602 7.53778 20.2652 7.09961C19.0609 6.74664 17.765 6.35684 16.523 6.20011C15.0682 6.01653 13.4708 5.50711 12.035 6.08018C10.9054 6.53101 7.58164 6.72534 6.57015 7.4061C6.13834 7.69672 5.97517 8.20087 5.68575 8.60543C5.33714 9.09273 4.91754 9.55358 4.61655 10.0713C3.82947 11.425 3.98701 13.3156 4.14135 14.8153C4.30458 16.4014 4.80886 18.0205 4.57695 19.6259C4.20929 22.1711 4.01972 24.5534 4.64295 27.1151C5.10501 29.0142 8.70295 31.1317 10.5764 31.6792C11.7247 32.0148 12.9281 31.9134 14.0348 32.4721C14.7726 32.8445 15.5686 32.9757 16.2854 33.4249C17.0514 33.9048 17.9028 34.2917 18.7802 34.5042C19.6767 34.7215 20.7367 34.864 21.6578 34.864C22.6552 34.864 23.5954 34.5469 24.575 34.411C26.3452 34.1652 27.8934 33.3319 29.4062 32.4121C31.4434 31.1734 33.5294 29.9524 35.6498 28.8674C37.1127 28.1189 38.6676 27.6231 40.283 27.3682C40.9243 27.2671 42.4796 27.0783 42.8372 27.728C43.2402 28.4604 42.0237 29.1788 41.471 29.4071C40.39 29.8535 39.2073 30.2582 38.2634 30.9729C37.0975 31.8557 35.9326 32.7545 35.201 34.0512C34.1063 35.9913 32.9307 37.8786 31.8218 39.8079C30.7597 41.6557 29.1478 42.4537 27.1358 42.8995C26.3124 43.082 25.4375 43.1719 24.6014 43.286C23.5466 43.4299 22.5422 43.7894 21.4994 43.9789C19.4552 44.3504 17.2779 44.0617 15.3482 44.9384C13.2303 45.9005 11.3377 47.1195 9.79755 48.9162C8.87434 49.9932 7.90175 51.017 7.02555 52.1344C6.00255 53.4389 5.44675 55.1461 4.75515 56.6452C3.2343 59.9417 1.98993 63.537 1.50795 67.1593C1.44998 67.5949 1.19136 70.4047 2.17455 68.845C3.17718 67.2544 4.16893 65.6892 5.68575 64.5408L5.81931 64.4396C7.12114 63.4543 8.42859 62.4647 9.56655 61.3159C9.63515 61.2466 10.0398 60.7571 9.98235 61.076C9.8489 61.817 9.40088 62.5839 9.16395 63.3014C8.32587 65.8397 9.05793 68.5394 9.87015 70.9771C10.1509 71.8199 10.5458 72.6985 11.111 73.3891C11.2929 73.6115 11.9847 74.4083 11.771 73.7356C10.6749 70.2858 10.5317 66.1755 12.1274 62.8617C12.8791 61.3004 13.7798 59.9866 14.807 58.6041C15.5904 57.5495 16.5563 56.7162 17.3018 55.6124C17.977 54.6126 19.0768 53.8327 19.8626 52.9073C20.4361 52.2318 21.4378 51.5125 22.2254 51.1149C23.9832 50.2276 26.0761 50.3798 27.9542 49.9489C28.9184 49.7277 29.8239 49.224 30.779 48.9895C31.6442 48.777 32.4995 48.2267 33.3926 48.1766C34.1621 48.1334 34.9109 47.472 35.597 47.1572C36.5466 46.7214 37.4974 45.4675 38.0192 44.5719C38.631 43.5219 39.0176 42.5217 39.2138 41.3338C39.4653 39.8102 40.0086 38.3084 40.4612 36.8363C41.0504 34.9196 41.7898 33.0811 42.9494 31.4793C43.8066 30.295 44.993 30.2855 46.223 29.7336C46.7247 29.5085 47.6914 29.6422 48.2426 29.5803C48.8038 29.5174 49.3306 29.4671 49.9058 29.4671C51.9832 29.4671 51.9929 32.133 52.163 33.678C52.6373 37.9879 53.2307 42.3364 56.6246 45.4581C58.9095 47.5598 61.4772 48.5317 64.3862 49.4026C65.786 49.8216 67.2233 49.8421 68.6366 50.1888C69.5965 50.4243 70.5965 50.5692 71.5802 50.6685C74.6701 50.9805 78.6953 49.9219 81.2624 52.2543C82.3138 53.2096 82.9584 54.2396 83.2886 55.6124C83.7247 57.4251 83.1012 59.1499 82.6946 60.8895C82.4923 61.7552 81.9273 62.7793 81.4406 63.528C81.2909 63.7583 80.5694 64.5093 80.5694 64.7806C80.5694 64.8683 81.4791 64.413 81.566 64.3675C82.1406 64.0668 82.776 63.8545 83.2952 63.4614C84.5785 62.4897 85.6772 61.5515 86.615 60.2365C86.7332 60.0708 88.5155 57.5208 88.6346 57.7312C89.0745 58.5083 89.2441 59.9775 89.2286 60.8362C89.2169 61.4844 88.9908 62.0843 88.8986 62.7151C88.8166 63.2761 88.881 63.8325 88.7798 64.3942C88.7197 64.7278 88.6196 64.9823 88.8722 64.7273C89.2853 64.3103 89.8358 64.0386 90.2582 63.6213C91.6534 62.2427 92.7909 60.768 93.8354 59.0905C95.2446 56.8271 96.2132 53.8431 94.5812 51.4747C93.4493 49.8321 92.2987 48.0757 90.5882 46.9706C88.4233 45.5719 86.3311 44.4431 83.8826 43.6191C81.0381 42.6619 78.3408 43.2531 75.4742 43.7124C74.2009 43.9165 72.6753 44.2011 71.4086 43.8523C70.4314 43.5833 70.2221 42.5354 69.9302 41.6936C69.0322 39.1035 68.4705 36.4431 66.8942 34.1444C65.3976 31.962 63.2633 30.9483 60.7166 30.5198C60.1194 30.4193 55.658 30.2117 56.1098 28.8941C56.6279 27.3829 59.5352 28.5902 60.4724 28.8741C61.6065 29.2175 62.6281 29.9875 63.812 30.1867C65.12 30.4067 66.4362 30.8962 67.7324 31.2061C69.0606 31.5237 70.4255 31.8238 71.765 32.0789C72.4702 32.2133 73.4337 32.7781 74.1674 32.5587C75.839 32.0586 77.1 30.734 78.7148 30.1334C79.7479 29.7491 80.7394 29.4738 81.8366 29.3205C83.0219 29.1548 83.8905 28.6497 85.0046 28.2677C86.0411 27.9124 86.7567 27.4133 87.4466 26.562C88.0573 25.8085 88.911 25.1412 89.1362 24.1634C89.3668 23.1626 89.8592 22.5543 89.6972 21.4915C89.5863 20.7638 89.0957 20.1583 88.694 19.5726C87.5538 17.9099 87.7462 16.1373 88.2188 14.2289C88.4737 13.1998 88.4973 11.9415 88.3046 10.9041C88.1338 9.98472 88.0282 8.89383 87.6842 8.02575C86.8379 5.88983 85.1838 4.48379 83.4074 3.17514C82.6478 2.61559 81.7551 2.22585 81.0248 1.636C80.0825 0.874952 78.8711 0.976721 77.7512 1.04966C76.4304 1.13568 74.9814 1.55524 73.844 2.23566C72.9594 2.76487 72.0539 3.58714 71.1116 3.97469C67.0075 5.66266 62.6414 6.77556 59.4362 10.0113C58.8799 10.5729 58.6598 11.4039 58.2812 12.0835C57.868 12.825 57.4824 13.4787 56.9216 14.1157C55.8827 15.2955 54.5656 15.8659 54.1232 17.4738C53.9022 18.2768 53.704 19.1232 53.1134 19.7525C52.5152 20.3899 52.4469 20.0849 51.8066 19.7525C50.7516 19.2048 49.4481 18.989 48.269 19.1795C47.2717 19.3406 46.295 19.6109 45.3254 19.8991Z" stroke="white" stroke-width="2" stroke-linecap="round"/>
<path d="M62.4986 16.8741C60.7634 17.7263 58.358 21.0034 58.4594 21.1917C58.5853 21.4624 60.2162 21.7914 60.6044 21.7914C61.3663 21.7914 62.1334 21.5012 62.8814 21.3783C63.686 21.246 64.4907 21.1181 65.3036 21.0651C66.8736 20.9629 68.4061 20.9894 69.8642 21.6981C71.4521 22.4699 73.1721 23.101 74.5898 24.19C75.9193 25.2113 77.1875 25.6434 78.8336 25.0895C80.4536 24.5444 80.4946 23.5474 80.8466 22.0246C81.1899 20.5392 80.9268 18.9654 81.5066 17.5671C81.9425 16.5158 82.9511 16.4433 83.6714 15.7681C84.6118 14.8865 85.1388 13.3988 84.6548 12.1501C84.0871 10.6855 82.9029 10.3215 81.6188 9.73813C78.835 8.47348 76.5009 10.3998 74.5634 12.2501C73.3836 13.3767 72.2107 14.568 70.8938 15.5349C70.3006 15.9704 69.3654 16.5716 68.6168 16.6276C67.8447 16.6853 67.1201 16.5463 66.3596 16.461C65.2355 16.3349 63.5207 16.3721 62.4986 16.8741Z" stroke="white" stroke-width="2" stroke-linecap="round"/>
<path d="M34.7258 19.4861C35.7395 20.2092 37.1421 21.0192 38.0258 21.9114C38.5812 22.472 35.318 23.0421 33.8942 22.9908C32.6083 22.9444 31.2625 22.2943 30.0926 21.8181C28.5453 21.1882 27.3153 21.4421 25.7828 21.9713C24.0105 22.5834 22.6262 23.4572 21.1562 24.6165C19.8057 25.6817 18.3188 26.7722 16.6418 27.2484C15.0958 27.6873 13.1662 27.3155 12.431 25.6826C11.6333 23.9108 12.0125 21.6466 12.2726 19.7792C12.4524 18.4888 12.9704 16.8646 12.365 15.6082C12.0143 14.8806 11.861 14.2375 11.8898 13.4228C11.9265 12.3865 12.8049 11.8926 13.7642 12.0502C14.5723 12.183 14.9459 12.8738 15.3878 13.5227C16.4072 15.0196 18.4908 15.7102 20.2124 15.9147C21.0613 16.0155 21.8264 16.0485 22.6742 15.8881C23.2982 15.77 23.9041 15.5549 24.542 15.5549C26.7683 15.5549 28.6482 15.8566 30.7196 16.7609C32.1861 17.4011 33.4291 18.561 34.7258 19.4861Z" stroke="white" stroke-width="2" stroke-linecap="round"/>
</svg>
