<svg width="390" height="259" viewBox="0 0 390 259" fill="none" xmlns="http://www.w3.org/2000/svg">
<path d="M408.944 88.8288C408.468 87.8323 407.274 87.4109 406.277 87.8874L344.03 117.658C343.034 118.135 342.612 119.329 343.089 120.325L385.034 208.029C385.8 209.63 388.117 209.515 388.72 207.845L403.823 165.973C404.195 164.944 405.323 164.405 406.357 164.761L448.433 179.286C450.111 179.865 451.656 178.134 450.89 176.533L408.944 88.8288Z" fill="#CC121B"/>
<path d="M298.142 129.813C297.959 128.724 296.927 127.989 295.838 128.173L227.794 139.618C226.704 139.802 225.97 140.833 226.153 141.923L242.28 237.794C242.574 239.544 244.834 240.072 245.873 238.633L271.94 202.552C272.581 201.666 273.815 201.458 274.71 202.087L311.147 227.654C312.601 228.673 314.563 227.435 314.268 225.685L298.142 129.813Z" fill="#CC121B"/>
<path d="M180.186 144.207C180.332 143.112 179.563 142.106 178.468 141.96L110.073 132.841C108.978 132.695 107.972 133.464 107.826 134.559L94.9768 230.924C94.7422 232.684 96.7456 233.854 98.1632 232.785L133.708 205.991C134.581 205.333 135.821 205.498 136.492 206.363L163.774 241.534C164.862 242.937 167.102 242.332 167.336 240.573L180.186 144.207Z" fill="#CC121B"/>
<path d="M65.3944 120.784C65.9454 119.827 65.616 118.604 64.6587 118.053L4.85602 83.6343C3.89869 83.0833 2.67595 83.4127 2.12497 84.37L-46.3695 168.63C-47.255 170.168 -45.8464 172.012 -44.1292 171.562L-1.07065 160.28C-0.0125581 160.002 1.07198 160.626 1.3638 161.681L13.239 204.579C13.7126 206.29 16.0145 206.582 16.8999 205.044L65.3944 120.784Z" fill="#CC121B"/>
<path d="M271.156 191.125L248.691 162.943L258.377 161.455L246.096 146.049L281.532 140.606L274.441 158.988L284.127 157.5L271.156 191.125Z" fill="url(#paint0_linear_267_217)"/>
<path d="M3.699 148.507L34.4156 129.656L25.8148 124.96L42.6065 114.655L11.1402 97.4739L11.55 117.171L2.94924 112.475L3.699 148.507Z" fill="url(#paint1_linear_267_217)"/>
<path d="M380.757 156.667C380.614 157.168 381.319 157.442 381.553 156.977L388.872 142.405C389.05 142.049 389.575 142.107 389.672 142.493L393.653 158.306C393.781 158.811 394.528 158.696 394.498 158.176L393.55 141.897C393.527 141.5 394.01 141.288 394.287 141.573L405.642 153.277C406.004 153.651 406.594 153.177 406.308 152.742L397.348 139.118C397.129 138.786 397.441 138.36 397.824 138.469L413.509 142.927C414.01 143.07 414.285 142.365 413.819 142.131L399.247 134.812C398.892 134.634 398.949 134.11 399.335 134.013L415.148 130.031C415.653 129.904 415.538 129.156 415.018 129.186L398.739 130.134C398.342 130.157 398.13 129.674 398.415 129.397L410.119 118.043C410.493 117.68 410.02 117.09 409.585 117.376L395.96 126.336C395.628 126.555 395.203 126.243 395.311 125.86L399.77 110.175C399.912 109.674 399.207 109.4 398.973 109.865L391.655 124.437C391.476 124.792 390.952 124.735 390.855 124.349L386.873 108.536C386.746 108.031 385.998 108.146 386.028 108.666L386.976 124.945C386.999 125.342 386.517 125.554 386.24 125.269L374.885 113.565C374.522 113.191 373.932 113.665 374.218 114.1L383.179 127.724C383.397 128.056 383.085 128.481 382.703 128.373L367.017 123.914C366.516 123.772 366.242 124.477 366.707 124.711L381.279 132.03C381.635 132.208 381.577 132.732 381.192 132.829L365.378 136.811C364.873 136.938 364.988 137.686 365.508 137.656L381.787 136.708C382.184 136.685 382.397 137.168 382.111 137.444L370.407 148.799C370.034 149.162 370.507 149.752 370.942 149.466L384.566 140.506C384.899 140.287 385.324 140.599 385.215 140.982L380.757 156.667Z" fill="url(#paint2_linear_267_217)"/>
<path d="M130.138 196.066C130.009 196.571 130.721 196.827 130.942 196.356L137.881 181.599C138.05 181.239 138.576 181.283 138.683 181.666L143.073 197.371C143.213 197.872 143.958 197.738 143.914 197.219L142.545 180.97C142.511 180.574 142.988 180.349 143.273 180.627L154.927 192.033C155.299 192.397 155.877 191.909 155.579 191.481L146.269 178.093C146.042 177.767 146.343 177.334 146.728 177.433L162.524 181.483C163.028 181.612 163.284 180.901 162.813 180.679L148.056 173.74C147.696 173.571 147.74 173.045 148.123 172.938L163.828 168.548C164.33 168.408 164.195 167.664 163.677 167.707L147.427 169.076C147.031 169.11 146.806 168.633 147.085 168.349L158.49 156.694C158.855 156.322 158.366 155.744 157.939 156.042L144.551 165.352C144.224 165.579 143.791 165.278 143.89 164.893L147.941 149.097C148.07 148.593 147.358 148.337 147.136 148.808L140.198 163.565C140.028 163.925 139.503 163.881 139.396 163.498L135.006 147.793C134.866 147.292 134.121 147.426 134.165 147.945L135.534 164.194C135.567 164.59 135.09 164.815 134.806 164.537L123.152 153.131C122.78 152.767 122.202 153.255 122.499 153.683L131.81 167.07C132.037 167.397 131.736 167.83 131.351 167.731L115.555 163.681C115.05 163.551 114.794 164.263 115.266 164.485L130.022 171.424C130.382 171.593 130.338 172.118 129.955 172.225L114.251 176.615C113.749 176.756 113.883 177.5 114.402 177.456L130.651 176.087C131.048 176.054 131.272 176.531 130.994 176.815L119.588 188.469C119.224 188.842 119.713 189.419 120.14 189.122L133.528 179.812C133.854 179.585 134.287 179.885 134.189 180.271L130.138 196.066Z" fill="url(#paint3_linear_267_217)"/>
<path d="M425.221 75.5282C344.258 126.199 142.228 195.191 -18.1958 65.7924" stroke="#CC121B" stroke-width="8"/>
<path d="M-148.923 213.044C-135.527 208.582 134.996 126.056 111.202 91.1727C106.494 84.2714 94.4609 83.687 87.4027 83.5008C72.2483 83.1009 56.8278 85.5977 42.3494 90.0093C23.4815 95.7584 5.25174 105.821 -5.59513 122.796C-25.2631 153.577 8.69518 184.411 31.2774 202.033C46.8643 214.196 73.414 238.819 93.8533 224.091C115.445 208.533 136.125 195.22 163.074 190.922C187.353 187.05 221.08 190.254 237.737 210.657C244 218.329 256.35 241.45 243.362 248.781C228.967 256.906 226.045 236.134 224.897 226.61C221.526 198.643 229.239 167.394 253.362 150.528C268.589 139.881 287.165 134.772 305.005 130.495C318.427 127.277 333.472 123.323 347.347 126.07C354.496 127.485 383.833 139.766 368.581 150.777C357.863 158.515 339.7 154.21 328.691 149.925C305.342 140.837 286.647 123.368 270.473 104.634C255.868 87.7182 238.144 65.6283 234.453 42.9671C231.254 23.3292 250.604 11.6452 267.918 10.2462C290.15 8.4498 304.646 24.271 323.39 35.23C340.454 45.2063 399.74 74.1224 404.098 45.7717" stroke="white" stroke-width="2" stroke-linecap="round"/>
<path d="M109.829 129.645C93.128 125.508 76.4281 120.006 59.8811 112.937" stroke="#CC121B" stroke-width="8"/>
<path d="M270.407 204.676L245.874 238.633C244.834 240.072 242.575 239.544 242.28 237.794L237.187 207.518C236.999 206.396 237.783 205.342 238.913 205.202L268.539 201.52C270.273 201.304 271.43 203.259 270.407 204.676Z" fill="#CC121B"/>
<defs>
<linearGradient id="paint0_linear_267_217" x1="266.166" y1="195.298" x2="279.229" y2="147.384" gradientUnits="userSpaceOnUse">
<stop stop-color="#CC121B"/>
<stop offset="1" stop-color="#850007"/>
</linearGradient>
<linearGradient id="paint1_linear_267_217" x1="6.96958" y1="154.13" x2="10.9983" y2="104.631" gradientUnits="userSpaceOnUse">
<stop stop-color="#CC121B"/>
<stop offset="1" stop-color="#850007"/>
</linearGradient>
<linearGradient id="paint2_linear_267_217" x1="387.103" y1="163.365" x2="389.966" y2="109" gradientUnits="userSpaceOnUse">
<stop stop-color="#CC121B"/>
<stop offset="1" stop-color="#850007"/>
</linearGradient>
<linearGradient id="paint3_linear_267_217" x1="136.656" y1="202.598" x2="138.11" y2="148.177" gradientUnits="userSpaceOnUse">
<stop stop-color="#CC121B"/>
<stop offset="1" stop-color="#850007"/>
</linearGradient>
</defs>
</svg>
