<svg width="203" height="133" viewBox="0 0 203 133" fill="none" xmlns="http://www.w3.org/2000/svg">
<path d="M48.0017 53.5266L48.4643 52.64L48.0017 53.5266ZM27.5 100.027L28.3932 100.476L27.5 100.027ZM124.002 23.0265L124.347 22.0879L124.002 23.0265ZM2.46184 30.6396L1.57487 30.1778L0.651197 31.9517L1.53816 32.4136L2.46184 30.6396ZM47.5392 54.4132C70.4969 66.3911 78.042 79.6981 77.5491 91.5874C77.0518 103.584 68.369 114.625 57.8038 121.992C52.5408 125.661 46.8698 128.375 41.632 129.814C36.3692 131.259 31.6658 131.386 28.2564 130.047C26.5686 129.384 25.2006 128.364 24.2108 126.959C23.219 125.552 22.5686 123.705 22.4059 121.329C22.0782 116.546 23.7368 109.727 28.3932 100.476L26.6068 99.5769C21.8881 108.951 20.0468 116.156 20.4106 121.466C20.5936 124.137 21.3368 126.354 22.576 128.112C23.8172 129.873 25.5176 131.119 27.5252 131.908C31.5066 133.472 36.7018 133.242 42.1618 131.742C47.6469 130.236 53.523 127.415 58.9477 123.632C69.7579 116.094 79.0131 104.557 79.5474 91.6702C80.0861 78.6756 71.7565 64.7924 48.4643 52.64L47.5392 54.4132ZM28.3932 100.476C43.1018 71.2552 58.0298 48.7971 73.7571 35.3158C89.4327 21.8789 105.823 17.4117 123.657 23.9651L124.347 22.0879C105.678 15.2277 88.543 20.0074 72.4555 33.7974C56.4197 47.543 41.3477 70.2917 26.6068 99.5769L28.3932 100.476ZM123.657 23.9651C144.499 31.6241 159.878 33.5491 171.799 32.222C183.743 30.8922 192.128 26.3068 198.98 21.1108C202.392 18.5236 205.433 15.7771 208.315 13.2344C211.212 10.6786 213.944 8.33268 216.798 6.46839C222.436 2.78564 228.544 0.979747 237.224 3.48719L237.779 1.56576C228.459 -1.12681 221.754 0.842309 215.704 4.79396C212.715 6.74687 209.884 9.18299 206.992 11.7346C204.085 14.2993 201.11 16.9857 197.772 19.5172C191.123 24.5588 183.071 28.9546 171.578 30.2343C160.061 31.5165 145.004 29.679 124.347 22.0879L123.657 23.9651ZM1.53816 32.4136C8.62466 36.1035 16.7993 39.8666 24.8548 43.5714C32.9222 47.2816 40.8675 50.9323 47.5392 54.4132L48.4643 52.64C41.7393 49.1313 33.7444 45.4584 25.6905 41.7543C17.6245 38.0447 9.49666 34.3027 2.46184 30.6396L1.53816 32.4136Z" fill="white"/>
</svg>
