<svg width="390" height="434" viewBox="0 0 390 434" fill="none" xmlns="http://www.w3.org/2000/svg">
<path d="M277.127 8.11427C277.085 8.03191 277.092 7.97942 277.103 7.94622C277.117 7.90415 277.152 7.85641 277.209 7.82106C277.266 7.78571 277.324 7.77567 277.368 7.7819C277.403 7.78682 277.453 7.80429 277.508 7.87891L284.291 17.108C284.799 17.7991 285.842 17.767 286.307 17.0459L292.51 7.41711C292.56 7.33925 292.609 7.31874 292.643 7.3117C292.687 7.30278 292.746 7.30922 292.805 7.34099C292.864 7.37276 292.902 7.41825 292.918 7.45938C292.931 7.49183 292.941 7.54382 292.904 7.62863L288.303 18.1181C287.959 18.9036 288.508 19.7908 289.365 19.8326L300.805 20.3904C300.898 20.3949 300.94 20.4269 300.963 20.453C300.993 20.4862 301.017 20.5404 301.019 20.6075C301.021 20.6746 301 20.7301 300.973 20.765C300.951 20.7926 300.911 20.8271 300.819 20.8373L289.435 22.0977C288.582 22.1921 288.088 23.1114 288.481 23.8743L293.718 34.0609C293.76 34.1432 293.753 34.1957 293.742 34.2289C293.728 34.271 293.693 34.3187 293.636 34.3541C293.579 34.3894 293.521 34.3995 293.477 34.3932C293.442 34.3883 293.392 34.3708 293.338 34.2962L286.554 25.0672C286.046 24.376 285.003 24.4081 284.538 25.1292L278.335 34.758C278.285 34.8359 278.236 34.8564 278.202 34.8634C278.158 34.8723 278.099 34.8659 278.04 34.8341C277.981 34.8024 277.943 34.7569 277.927 34.7158C277.914 34.6833 277.904 34.6313 277.941 34.5465L282.542 24.0571C282.886 23.2715 282.337 22.3843 281.48 22.3425L270.04 21.7847C269.947 21.7802 269.905 21.7482 269.882 21.7221C269.852 21.6889 269.829 21.6348 269.827 21.5676C269.825 21.5005 269.845 21.445 269.872 21.4101C269.894 21.3826 269.934 21.348 270.026 21.3379L281.41 20.0775C282.263 19.9831 282.757 19.0638 282.365 18.3009L277.127 8.11427Z" fill="white" stroke="#0D0D0D"/>
<path d="M112.212 327.383C112.403 326.927 113.09 327.151 112.974 327.632L109.633 341.499C109.403 342.454 110.201 343.344 111.175 343.218L125.322 341.394C125.813 341.331 125.962 342.038 125.487 342.178L111.808 346.219C110.866 346.497 110.494 347.633 111.09 348.414L119.743 359.753C120.043 360.146 119.505 360.629 119.146 360.288L108.808 350.461C108.096 349.785 106.927 350.031 106.548 350.938L101.054 364.101C100.864 364.557 100.177 364.333 100.293 363.852L103.633 349.985C103.864 349.03 103.066 348.141 102.091 348.266L87.9448 350.09C87.4539 350.153 87.305 349.446 87.7796 349.306L101.459 345.266C102.401 344.987 102.772 343.852 102.176 343.071L93.5237 331.731C93.2235 331.338 93.7614 330.855 94.1201 331.196L104.459 341.023C105.171 341.699 106.34 341.453 106.718 340.547L112.212 327.383Z" fill="white" stroke="#0D0D0D"/>
<path d="M309.635 375.125C309.333 374.27 310.545 373.731 310.978 374.528L320.319 391.714C320.9 392.783 322.373 392.938 323.164 392.014L335.894 377.157C336.486 376.466 337.555 377.249 337.083 378.021L326.865 394.705C326.23 395.743 326.831 397.096 328.028 397.319L347.259 400.91C348.149 401.077 348.014 402.395 347.104 402.371L327.546 401.87C326.33 401.839 325.458 403.036 325.863 404.184L332.365 422.632C332.666 423.487 331.455 424.026 331.022 423.229L321.681 406.043C321.099 404.974 319.627 404.819 318.835 405.743L306.105 420.6C305.513 421.291 304.444 420.508 304.917 419.736L315.134 403.052C315.77 402.014 315.169 400.661 313.972 400.438L294.74 396.847C293.85 396.68 293.986 395.362 294.895 395.386L314.453 395.887C315.67 395.918 316.541 394.721 316.137 393.573L309.635 375.125Z" fill="white" stroke="#0D0D0D"/>
<path d="M271.61 401.98C271.652 401.921 271.686 401.913 271.702 401.91C271.728 401.907 271.766 401.912 271.805 401.936C271.845 401.96 271.867 401.992 271.875 402.016C271.88 402.032 271.888 402.066 271.855 402.13L267.181 411.323C266.818 412.036 267.272 412.903 268.08 412.984L278.242 414.006C278.309 414.013 278.33 414.036 278.339 414.047C278.354 414.066 278.369 414.103 278.368 414.153C278.366 414.204 278.348 414.242 278.329 414.264C278.316 414.279 278.291 414.301 278.223 414.305L268.011 414.916C267.211 414.964 266.701 415.798 267.022 416.532L271.129 425.902C271.156 425.964 271.148 425.997 271.141 426.015C271.13 426.042 271.104 426.076 271.06 426.1C271.015 426.124 270.976 426.127 270.952 426.122C270.938 426.12 270.908 426.112 270.872 426.055L265.334 417.473C264.894 416.791 263.915 416.782 263.445 417.429L257.39 425.777C257.347 425.836 257.314 425.844 257.297 425.847C257.272 425.851 257.234 425.846 257.194 425.821C257.154 425.797 257.133 425.765 257.125 425.741C257.119 425.725 257.112 425.692 257.144 425.627L261.819 416.435C262.182 415.721 261.728 414.854 260.919 414.773L250.757 413.751C250.691 413.744 250.67 413.721 250.661 413.71C250.646 413.691 250.631 413.654 250.632 413.604C250.634 413.553 250.651 413.515 250.67 413.493C250.683 413.479 250.709 413.456 250.777 413.452L260.989 412.841C261.789 412.793 262.299 411.959 261.978 411.225L257.871 401.855C257.843 401.793 257.852 401.76 257.859 401.742C257.87 401.715 257.896 401.682 257.94 401.657C257.984 401.633 258.024 401.63 258.048 401.635C258.062 401.637 258.092 401.645 258.128 401.702L263.665 410.284C264.106 410.966 265.085 410.975 265.555 410.328L271.61 401.98Z" fill="white" stroke="#0D0D0D"/>
<path d="M63.9965 63.9908C64.0471 63.3363 64.9529 63.3363 65.0035 63.9908L66.2659 80.2986C66.3475 81.353 67.4469 82.0365 68.4182 81.561L82.7733 74.5321C82.9328 74.454 83.0555 74.4624 83.1482 74.4974C83.2508 74.5361 83.3508 74.6216 83.4198 74.7446C83.5574 74.9899 83.5287 75.2752 83.2663 75.4611L70.1736 84.74C69.3123 85.3504 69.3123 86.6494 70.1736 87.2598L83.2663 96.5387C83.5287 96.7247 83.5574 97.0099 83.4198 97.2553C83.3508 97.3782 83.2508 97.4637 83.1482 97.5024C83.0555 97.5374 82.9328 97.5458 82.7733 97.4677L68.4182 90.4388C67.4469 89.9633 66.3475 90.6468 66.2659 91.7013L65.0035 108.009C64.9529 108.664 64.0471 108.663 63.9965 108.009L62.7341 91.7013C62.6525 90.6468 61.5531 89.9633 60.5818 90.4388L46.2267 97.4677C46.0672 97.5458 45.9445 97.5374 45.8518 97.5024C45.7492 97.4637 45.6492 97.3782 45.5802 97.2553C45.4426 97.0099 45.4713 96.7247 45.7337 96.5387L58.8264 87.2598C59.6877 86.6494 59.6877 85.3504 58.8264 84.74L45.7337 75.4611C45.4713 75.2752 45.4426 74.9899 45.5802 74.7446C45.6492 74.6216 45.7492 74.5361 45.8518 74.4974C45.9445 74.4624 46.0672 74.454 46.2267 74.5321L60.5818 81.561C61.5531 82.0365 62.6525 81.353 62.7341 80.2986L63.9965 63.9908Z" fill="white" stroke="#0D0D0D"/>
</svg>
